<?xml version="1.0" encoding="UTF-8"?>
<!DOCTYPE svg PUBLIC "-//W3C//DTD SVG 1.0//EN" "http://www.w3.org/TR/2001/REC-SVG-20010904/DTD/svg10.dtd">
<!-- Creator: CorelDRAW 2018 -->
<svg xmlns="http://www.w3.org/2000/svg" xml:space="preserve" width="30px" height="28px" version="1.0" style="shape-rendering:geometricPrecision; text-rendering:geometricPrecision; image-rendering:optimizeQuality; fill-rule:evenodd; clip-rule:evenodd"
viewBox="0 0 0.44 0.41"
 xmlns:xlink="http://www.w3.org/1999/xlink">
 <defs>
  <style type="text/css">
   <![CDATA[
    .fil0 {fill:black;fill-rule:nonzero}
   ]]>
  </style>
 </defs>
 <g id="Layer_x0020_1">
  <metadata id="CorelCorpID_0Corel-Layer"/>
  <path class="fil0" d="M0.34 0.36c0,-0.01 0,-0.01 -0.01,-0.02 0,0 0,0 -0.01,0 0,0 -0.01,0 -0.01,0 0,0.01 0,0.01 0,0.02 0,0 0,0.01 0,0.01 0,0 0.01,0 0.01,0 0.01,0 0.01,0 0.01,0 0.01,0 0.01,-0.01 0.01,-0.01zm0.07 0c0,-0.01 0,-0.01 -0.01,-0.02 0,0 0,0 -0.01,0 0,0 -0.01,0 -0.01,0 0,0.01 -0.01,0.01 -0.01,0.02 0,0 0.01,0.01 0.01,0.01 0,0 0.01,0 0.01,0 0.01,0 0.01,0 0.01,0 0.01,0 0.01,-0.01 0.01,-0.01zm0.03 -0.06l0 0.08c0,0.01 0,0.02 -0.01,0.02 0,0.01 -0.01,0.01 -0.01,0.01l-0.39 0c-0.01,0 -0.02,0 -0.02,-0.01 -0.01,0 -0.01,-0.01 -0.01,-0.02l0 -0.08c0,-0.01 0,-0.02 0.01,-0.02 0,-0.01 0.01,-0.01 0.02,-0.01l0.12 0 0.03 0.04c0.01,0 0.02,0.01 0.02,0.01 0.01,0 0.01,0 0.02,0 0.01,0 0.01,0 0.02,0 0.01,0 0.01,-0.01 0.02,-0.01l0.03 -0.04 0.13 0c0,0 0.01,0 0.01,0.01 0.01,0 0.01,0.01 0.01,0.02zm-0.08 -0.15c0,0 0,0 0,0.01 0,0 -0.01,0 -0.01,0l-0.12 0.12c0,0.01 0,0.01 0,0.01 0,0 -0.01,0 -0.01,0 0,0 0,0 -0.01,0 0,0 0,0 0,-0.01l-0.12 -0.12c0,0 0,0 0,0 -0.01,-0.01 -0.01,-0.01 0,-0.01 0,-0.01 0,-0.01 0,-0.01 0.01,0 0.01,0 0.01,0l0.07 0 0 -0.12c0,-0.01 0,-0.01 0,-0.01 0.01,-0.01 0.01,-0.01 0.02,-0.01l0.07 0c0,0 0,0 0.01,0.01 0,0 0,0 0,0.01l0 0.12 0.07 0c0,0 0.01,0 0.01,0 0,0 0,0 0.01,0.01z"/>
 </g>
</svg>
