<?xml version="1.0" encoding="UTF-8"?>
<!DOCTYPE svg PUBLIC "-//W3C//DTD SVG 1.0//EN" "http://www.w3.org/TR/2001/REC-SVG-20010904/DTD/svg10.dtd">
<!-- Creator: CorelDRAW 2018 -->
<svg xmlns="http://www.w3.org/2000/svg" xml:space="preserve" width="25px" height="19px" version="1.0" style="shape-rendering:geometricPrecision; text-rendering:geometricPrecision; image-rendering:optimizeQuality; fill-rule:evenodd; clip-rule:evenodd"
viewBox="0 0 0.87 0.68"
 xmlns:xlink="http://www.w3.org/1999/xlink">
 <defs>
  <style type="text/css">
   <![CDATA[
    .fil0 {fill:#AFB1B3;fill-rule:nonzero}
   ]]>
  </style>
 </defs>
 <g id="Layer_x0020_1">
  <metadata id="CorelCorpID_0Corel-Layer"/>
  <path class="fil0" d="M0.81 0.61l0 -0.38c-0.01,0.01 -0.01,0.01 -0.02,0.02 -0.01,0 -0.01,0.01 -0.02,0.01 -0.03,0.03 -0.07,0.06 -0.1,0.09 -0.04,0.02 -0.07,0.05 -0.1,0.08 -0.02,0.01 -0.04,0.03 -0.06,0.04 -0.03,0.02 -0.05,0.03 -0.08,0.03l0 0c-0.02,0 -0.05,-0.01 -0.07,-0.03 -0.02,-0.01 -0.04,-0.03 -0.06,-0.04 -0.03,-0.03 -0.07,-0.06 -0.1,-0.08 -0.04,-0.03 -0.07,-0.06 -0.1,-0.09 -0.01,0 -0.02,-0.01 -0.02,-0.01 -0.01,-0.01 -0.01,-0.01 -0.02,-0.02l0 0.38c0,0 0,0 0.01,0.01 0,0 0,0 0.01,0l0.71 0c0,0 0.01,0 0.01,0 0,-0.01 0.01,-0.01 0.01,-0.01zm0 -0.51c0,-0.01 0,-0.02 -0.01,-0.03 0,0 0,-0.01 -0.01,-0.01l-0.71 0c-0.01,0 -0.01,0 -0.01,0.01 -0.01,0 -0.01,0 -0.01,0.01 0,0.03 0.01,0.05 0.02,0.07 0.01,0.03 0.03,0.05 0.05,0.07 0.04,0.02 0.07,0.05 0.1,0.07 0.03,0.03 0.06,0.05 0.1,0.08 0.01,0.01 0.03,0.02 0.05,0.04 0.02,0.02 0.04,0.02 0.05,0.02l0 0c0.02,0 0.04,0 0.06,-0.02 0.02,-0.02 0.04,-0.03 0.05,-0.04 0.03,-0.03 0.07,-0.05 0.1,-0.08 0.03,-0.02 0.06,-0.05 0.09,-0.07 0.02,-0.02 0.04,-0.04 0.05,-0.06 0.02,-0.02 0.03,-0.04 0.03,-0.06zm0.06 -0.02l0 0.53c0,0.02 -0.01,0.03 -0.03,0.05 -0.01,0.01 -0.03,0.02 -0.05,0.02l-0.71 0c-0.02,0 -0.04,-0.01 -0.06,-0.02 -0.01,-0.02 -0.02,-0.03 -0.02,-0.05l0 -0.53c0,-0.02 0.01,-0.04 0.02,-0.06 0.02,-0.01 0.04,-0.02 0.06,-0.02l0.71 0c0.02,0 0.04,0.01 0.05,0.02 0.02,0.02 0.03,0.04 0.03,0.06z"/>
 </g>
</svg>
