<?xml version="1.0" encoding="UTF-8"?>
<!DOCTYPE svg PUBLIC "-//W3C//DTD SVG 1.0//EN" "http://www.w3.org/TR/2001/REC-SVG-20010904/DTD/svg10.dtd">
<!-- Creator: CorelDRAW 2018 -->
<svg xmlns="http://www.w3.org/2000/svg" xml:space="preserve" width="32px" height="32px" version="1.0" style="shape-rendering:geometricPrecision; text-rendering:geometricPrecision; image-rendering:optimizeQuality; fill-rule:evenodd; clip-rule:evenodd"
viewBox="0 0 3.75 3.73"
 xmlns:xlink="http://www.w3.org/1999/xlink">
 <defs>
  <style type="text/css">
   <![CDATA[
    .fil0 {fill:#C300FF;fill-rule:nonzero}
   ]]>
  </style>
 </defs>
 <g id="Layer_x0020_1">
  <metadata id="CorelCorpID_0Corel-Layer"/>
  <path class="fil0" d="M3.75 1.88c0,0.46 -0.15,0.87 -0.45,1.22 -0.31,0.35 -0.68,0.56 -1.13,0.63l0 -1.31 0.44 0 0.08 -0.54 -0.52 0 0 -0.36c0,-0.19 0.1,-0.29 0.3,-0.29l0.24 0 0 -0.46c-0.14,-0.02 -0.28,-0.04 -0.42,-0.04 -0.14,0 -0.27,0.03 -0.37,0.09 -0.11,0.05 -0.19,0.14 -0.25,0.25 -0.06,0.11 -0.09,0.24 -0.09,0.39l0 0.42 -0.48 0 0 0.54 0.48 0 0 1.31c-0.45,-0.07 -0.82,-0.28 -1.13,-0.63 -0.3,-0.35 -0.45,-0.76 -0.45,-1.22 0,-0.52 0.18,-0.97 0.55,-1.33 0.36,-0.37 0.81,-0.55 1.33,-0.55 0.51,0 0.96,0.18 1.32,0.55 0.37,0.36 0.55,0.81 0.55,1.33z"/>
 </g>
</svg>
