<?xml version="1.0" encoding="UTF-8"?>
<!DOCTYPE svg PUBLIC "-//W3C//DTD SVG 1.0//EN" "http://www.w3.org/TR/2001/REC-SVG-20010904/DTD/svg10.dtd">
<!-- Creator: CorelDRAW 2018 -->
<svg xmlns="http://www.w3.org/2000/svg" xml:space="preserve" width="125px" height="48px" version="1.0" style="shape-rendering:geometricPrecision; text-rendering:geometricPrecision; image-rendering:optimizeQuality; fill-rule:evenodd; clip-rule:evenodd"
viewBox="0 0 7.56 2.89"
 xmlns:xlink="http://www.w3.org/1999/xlink">
 <defs>
  <style type="text/css">
   <![CDATA[
    .fil0 {fill:#C300FF}
   ]]>
  </style>
 </defs>
 <g id="Layer_x0020_1">
  <metadata id="CorelCorpID_0Corel-Layer"/>
  <path class="fil0" d="M7.48 0.45c0.02,0.06 0.03,0.14 0.04,0.23 0.01,0.09 0.02,0.18 0.03,0.27 0,0.08 0.01,0.17 0.01,0.24 0,0.08 0,0.14 0,0.19l0 0.07c0,0.45 -0.02,0.78 -0.08,1 -0.02,0.09 -0.07,0.16 -0.14,0.23 -0.06,0.06 -0.14,0.11 -0.23,0.13 -0.09,0.03 -0.28,0.04 -0.54,0.06 -0.27,0.01 -3.96,0.02 -4.18,0.02l-0.33 0c-0.86,0 -1.4,-0.02 -1.61,-0.08 -0.19,-0.05 -0.32,-0.17 -0.37,-0.36 -0.02,-0.1 -0.04,-0.23 -0.05,-0.4 -0.02,-0.16 -0.02,-0.31 -0.03,-0.42l0 -0.18c0,-0.45 0.03,-0.78 0.08,-1 0.03,-0.09 0.07,-0.17 0.14,-0.23 0.06,-0.07 0.14,-0.11 0.23,-0.14 0.1,-0.02 0.28,-0.04 0.54,-0.05 0.27,-0.02 0.52,-0.02 0.74,-0.03l0.33 0c0.86,0 4.84,0.03 5.05,0.08 0.09,0.03 0.17,0.07 0.23,0.14 0.07,0.06 0.12,0.14 0.14,0.23zm-5.52 1.8l-0.59 -0.77 0 0.77 -0.43 0 0 -1.75 0.43 0 0 0.77 0.58 -0.77 0.5 0 -0.67 0.86 0.7 0.89 -0.52 0zm1.08 -1.16c0.05,-0.08 0.12,-0.14 0.19,-0.18 0.08,-0.05 0.16,-0.07 0.25,-0.07l0 0.45 -0.12 0c-0.1,0 -0.18,0.03 -0.24,0.07 -0.05,0.05 -0.08,0.13 -0.08,0.24l0 0.65 -0.42 0 0 -1.39 0.42 0 0 0.23zm1.96 -0.23l0 1.39 -0.43 0 0 -0.19c-0.04,0.06 -0.1,0.11 -0.17,0.15 -0.08,0.04 -0.16,0.06 -0.25,0.06 -0.11,0 -0.2,-0.03 -0.28,-0.08 -0.08,-0.04 -0.15,-0.11 -0.19,-0.2 -0.05,-0.09 -0.07,-0.2 -0.07,-0.32l0 -0.81 0.42 0 0 0.75c0,0.1 0.03,0.17 0.08,0.22 0.05,0.05 0.11,0.08 0.19,0.08 0.08,0 0.15,-0.03 0.2,-0.08 0.05,-0.05 0.07,-0.12 0.07,-0.22l0 -0.75 0.43 0zm0.64 1.04l0.6 0 0 0.35 -1.08 0 0 -0.34 0.58 -0.7 -0.57 0 0 -0.35 1.06 0 0 0.34 -0.59 0.7z"/>
 </g>
</svg>
