<?xml version="1.0" encoding="UTF-8"?>
<!DOCTYPE svg PUBLIC "-//W3C//DTD SVG 1.0//EN" "http://www.w3.org/TR/2001/REC-SVG-20010904/DTD/svg10.dtd">
<!-- Creator: CorelDRAW 2018 -->
<svg xmlns="http://www.w3.org/2000/svg" xml:space="preserve" width="88px" height="88px" version="1.0" style="shape-rendering:geometricPrecision; text-rendering:geometricPrecision; image-rendering:optimizeQuality; fill-rule:evenodd; clip-rule:evenodd"
viewBox="0 0 6.73 6.73"
 xmlns:xlink="http://www.w3.org/1999/xlink">
 <defs>
  <style type="text/css">
   <![CDATA[
    .fil0 {fill:#C300FF;fill-rule:nonzero}
   ]]>
  </style>
 </defs>
 <g id="Layer_x0020_1">
  <metadata id="CorelCorpID_0Corel-Layer"/>
  <path class="fil0" d="M6.61 3.06c0.08,0.09 0.12,0.2 0.12,0.31 0,0.12 -0.04,0.22 -0.12,0.31l-2.93 2.93c-0.09,0.08 -0.19,0.12 -0.31,0.12 -0.11,0 -0.22,-0.04 -0.31,-0.12l-2.94 -2.95c-0.08,-0.09 -0.12,-0.19 -0.12,-0.3 0,-0.12 0.04,-0.22 0.12,-0.31l2.03 -2.01 0.75 0.76c-0.05,0.1 -0.05,0.22 -0.01,0.37 0.05,0.15 0.14,0.25 0.29,0.31l0 1.85c-0.17,0.07 -0.27,0.19 -0.3,0.37 -0.04,0.18 0.01,0.34 0.14,0.47 0.1,0.1 0.22,0.15 0.36,0.15 0.14,0 0.26,-0.05 0.36,-0.15 0.12,-0.09 0.17,-0.23 0.16,-0.42 -0.02,-0.18 -0.12,-0.32 -0.3,-0.41l0 -1.83 0.71 0.69c-0.11,0.26 -0.05,0.47 0.19,0.62 0.23,0.16 0.45,0.14 0.65,-0.05 0.19,-0.2 0.21,-0.42 0.07,-0.65 -0.15,-0.23 -0.35,-0.3 -0.61,-0.21l-0.75 -0.75c0.07,-0.2 0.03,-0.37 -0.12,-0.52 -0.15,-0.15 -0.33,-0.19 -0.53,-0.12l-0.76 -0.78 0.6 -0.62c0.09,-0.08 0.19,-0.12 0.31,-0.12 0.12,0 0.22,0.04 0.3,0.12l2.95 2.94z"/>
 </g>
</svg>
