<?xml version="1.0" encoding="UTF-8"?>
<!DOCTYPE svg PUBLIC "-//W3C//DTD SVG 1.0//EN" "http://www.w3.org/TR/2001/REC-SVG-20010904/DTD/svg10.dtd">
<!-- Creator: CorelDRAW 2018 -->
<svg xmlns="http://www.w3.org/2000/svg" xml:space="preserve" width="33px" height="32px" version="1.0" style="shape-rendering:geometricPrecision; text-rendering:geometricPrecision; image-rendering:optimizeQuality; fill-rule:evenodd; clip-rule:evenodd"
viewBox="0 0 2.01 1.97"
 xmlns:xlink="http://www.w3.org/1999/xlink">
 <defs>
  <style type="text/css">
   <![CDATA[
    .fil0 {fill:#C300FF;fill-rule:nonzero}
   ]]>
  </style>
 </defs>
 <g id="Layer_x0020_1">
  <metadata id="CorelCorpID_0Corel-Layer"/>
  <path class="fil0" d="M0.67 1.58c0,0.01 0,0.01 -0.02,0.01 -0.01,0.01 -0.02,0 -0.02,-0.01 0,-0.01 0.01,-0.01 0.02,-0.01 0.02,-0.01 0.02,0 0.02,0.01zm-0.11 0c-0.01,0 -0.02,-0.01 -0.01,-0.02 0,-0.01 0.01,-0.01 0.02,-0.01 0.02,0.01 0.02,0.01 0.02,0.02 0,0.02 -0.01,0.02 -0.03,0.01zm0.17 -0.03c0.01,0 0.02,0.01 0.02,0.02 0,0 -0.01,0.01 -0.02,0.02 -0.01,0 -0.02,0 -0.02,-0.02 0,-0.01 0,-0.01 0.02,-0.02zm0.26 -1.55c0.19,0 0.36,0.04 0.52,0.13 0.15,0.09 0.28,0.21 0.37,0.36 0.09,0.15 0.13,0.32 0.13,0.5 0,0.22 -0.06,0.43 -0.19,0.6 -0.12,0.18 -0.29,0.3 -0.49,0.37 -0.02,0.01 -0.04,0 -0.05,-0.01 -0.01,-0.01 -0.02,-0.02 -0.02,-0.04 0,0 0,-0.05 0,-0.13 0,-0.09 0,-0.16 0,-0.21 0,-0.09 -0.02,-0.15 -0.07,-0.19 0.06,0 0.11,-0.01 0.14,-0.02 0.03,0 0.07,-0.01 0.12,-0.03 0.05,-0.02 0.09,-0.05 0.11,-0.08 0.03,-0.03 0.05,-0.07 0.07,-0.12 0.02,-0.06 0.03,-0.12 0.03,-0.2 0,-0.05 -0.01,-0.09 -0.02,-0.12 -0.02,-0.03 -0.05,-0.07 -0.09,-0.11 0.04,-0.09 0.03,-0.18 0,-0.28 -0.03,-0.01 -0.07,0 -0.11,0.02 -0.05,0.01 -0.09,0.03 -0.13,0.05l-0.04 0.04c-0.09,-0.02 -0.17,-0.04 -0.26,-0.04 -0.09,0 -0.17,0.02 -0.26,0.04 -0.01,-0.01 -0.03,-0.02 -0.05,-0.04 -0.03,-0.01 -0.06,-0.03 -0.11,-0.05 -0.05,-0.02 -0.09,-0.03 -0.12,-0.02 -0.04,0.1 -0.04,0.19 -0.01,0.28 -0.06,0.07 -0.09,0.14 -0.09,0.23 0,0.08 0.01,0.14 0.03,0.2 0.02,0.05 0.04,0.09 0.06,0.12 0.03,0.03 0.06,0.06 0.11,0.08 0.04,0.02 0.08,0.03 0.12,0.04 0.03,0 0.08,0.01 0.13,0.01 -0.03,0.04 -0.05,0.08 -0.06,0.14 -0.03,0.01 -0.06,0.02 -0.08,0.03 -0.03,0 -0.07,0 -0.11,-0.02 -0.05,-0.02 -0.08,-0.05 -0.11,-0.09 -0.01,-0.03 -0.03,-0.06 -0.06,-0.07 -0.03,-0.02 -0.05,-0.03 -0.07,-0.04l-0.02 0c-0.06,0 -0.06,0.02 -0.01,0.06 0.02,0.01 0.04,0.03 0.06,0.05 0.02,0.03 0.03,0.05 0.04,0.07l0.01 0.03c0.01,0.03 0.03,0.06 0.06,0.08 0.03,0.02 0.06,0.04 0.09,0.04 0.03,0.01 0.06,0.01 0.09,0.01 0.03,0 0.06,0 0.08,0l0.02 -0.01c0,0.04 0.01,0.08 0.01,0.15 0,0.06 0,0.1 0,0.1 0,0.02 -0.01,0.03 -0.02,0.04 -0.01,0.01 -0.03,0.02 -0.05,0.01 -0.21,-0.07 -0.37,-0.19 -0.5,-0.37 -0.13,-0.17 -0.19,-0.38 -0.19,-0.6 0,-0.28 0.1,-0.52 0.29,-0.71 0.19,-0.19 0.42,-0.28 0.7,-0.28zm-0.6 1.4c0.01,-0.01 0.02,0 0.02,0 0.01,0.01 0.01,0.02 0.01,0.02 -0.01,0.01 -0.01,0.01 -0.02,0 -0.01,-0.01 -0.01,-0.01 -0.01,-0.02zm-0.04 -0.03c0,-0.01 0.01,-0.01 0.02,-0.01 0.01,0.01 0.01,0.01 0.01,0.02 -0.01,0.01 -0.01,0.01 -0.02,0 -0.01,0 -0.01,-0.01 -0.01,-0.01zm0.13 0.14c0.01,-0.01 0.02,-0.01 0.03,0 0.01,0.01 0.01,0.02 0.01,0.03 -0.01,0.01 -0.02,0.01 -0.03,0 -0.01,-0.01 -0.02,-0.02 -0.01,-0.03zm-0.05 -0.06c0.01,-0.01 0.02,0 0.03,0.01 0.01,0.01 0.01,0.02 0,0.03 -0.01,0 -0.02,0 -0.02,-0.01 -0.01,-0.02 -0.01,-0.02 -0.01,-0.03z"/>
 </g>
</svg>
