<?xml version="1.0" encoding="UTF-8"?>
<!DOCTYPE svg PUBLIC "-//W3C//DTD SVG 1.0//EN" "http://www.w3.org/TR/2001/REC-SVG-20010904/DTD/svg10.dtd">
<!-- Creator: CorelDRAW 2018 -->
<svg xmlns="http://www.w3.org/2000/svg" xml:space="preserve" width="87px" height="99px" version="1.0" style="shape-rendering:geometricPrecision; text-rendering:geometricPrecision; image-rendering:optimizeQuality; fill-rule:evenodd; clip-rule:evenodd"
viewBox="0 0 6.64 7.52"
 xmlns:xlink="http://www.w3.org/1999/xlink">
 <defs>
  <style type="text/css">
   <![CDATA[
    .fil0 {fill:#C300FF;fill-rule:nonzero}
   ]]>
  </style>
 </defs>
 <g id="Layer_x0020_1">
  <metadata id="CorelCorpID_0Corel-Layer"/>
  <path class="fil0" d="M3.59 7.44c-0.09,0.05 -0.18,0.08 -0.28,0.08 -0.1,0 -0.19,-0.03 -0.28,-0.08l-0.92 -0.55c-0.1,-0.05 -0.11,-0.08 -0.03,-0.12 0.15,-0.04 0.29,-0.1 0.41,-0.17 0.02,-0.02 0.05,-0.02 0.08,0l0.7 0.41c0.03,0.02 0.06,0.02 0.09,0l2.74 -1.57c0.02,-0.02 0.03,-0.05 0.03,-0.09l0 -3.16c0,-0.03 -0.01,-0.06 -0.04,-0.08l-2.73 -1.57c-0.03,-0.02 -0.06,-0.02 -0.09,0l-2.74 1.57c-0.03,0.02 -0.04,0.05 -0.04,0.08l0 3.16c0,0.04 0.01,0.06 0.04,0.07l0.75 0.45c0.2,0.08 0.37,0.09 0.49,0.02 0.12,-0.06 0.17,-0.16 0.17,-0.3l0 -3.12c0,-0.06 0.03,-0.09 0.08,-0.09l0.34 0c0.06,0 0.09,0.03 0.09,0.09l0 3.12c0,0.26 -0.07,0.48 -0.22,0.63 -0.14,0.15 -0.34,0.23 -0.6,0.23 -0.19,0 -0.4,-0.06 -0.64,-0.18l-0.71 -0.42c-0.19,-0.1 -0.28,-0.27 -0.28,-0.5l0 -3.16c0,-0.22 0.09,-0.38 0.28,-0.49l2.75 -1.59c0.19,-0.11 0.37,-0.11 0.56,0l2.75 1.59c0.2,0.11 0.3,0.27 0.3,0.49l0 3.16c0,0.23 -0.1,0.4 -0.3,0.5l-2.75 1.59zm1.93 -3.04c0,0.3 -0.12,0.53 -0.35,0.69 -0.24,0.16 -0.58,0.24 -1.01,0.24 -0.97,0 -1.46,-0.33 -1.46,-1 0,-0.05 0.03,-0.08 0.09,-0.08l0.34 0c0.05,0 0.08,0.02 0.09,0.06 0.03,0.2 0.11,0.34 0.23,0.42 0.13,0.09 0.36,0.13 0.71,0.13 0.54,0 0.81,-0.14 0.81,-0.43 0,-0.05 0,-0.09 0,-0.11 -0.01,-0.03 -0.03,-0.05 -0.07,-0.08 -0.04,-0.03 -0.09,-0.06 -0.16,-0.09 -0.06,-0.02 -0.15,-0.04 -0.28,-0.06 -0.12,-0.02 -0.27,-0.04 -0.45,-0.06 -0.27,-0.03 -0.49,-0.07 -0.65,-0.12 -0.17,-0.05 -0.31,-0.13 -0.41,-0.25 -0.09,-0.12 -0.14,-0.28 -0.14,-0.48 0,-0.28 0.11,-0.49 0.32,-0.64 0.22,-0.16 0.53,-0.23 0.92,-0.23 0.85,0 1.31,0.31 1.37,0.95 0,0.03 -0.01,0.05 -0.02,0.06 -0.02,0.02 -0.04,0.02 -0.07,0.02l-0.36 0c-0.04,0 -0.06,-0.01 -0.07,-0.05 -0.04,-0.19 -0.12,-0.32 -0.24,-0.4 -0.13,-0.07 -0.33,-0.11 -0.61,-0.11 -0.47,0 -0.71,0.13 -0.71,0.39 0,0.1 0.05,0.17 0.16,0.21 0.11,0.05 0.37,0.1 0.78,0.16 0.45,0.06 0.77,0.15 0.96,0.26 0.19,0.12 0.28,0.32 0.28,0.6z"/>
 </g>
</svg>
