<?xml version="1.0" encoding="UTF-8"?>
<!DOCTYPE svg PUBLIC "-//W3C//DTD SVG 1.0//EN" "http://www.w3.org/TR/2001/REC-SVG-20010904/DTD/svg10.dtd">
<!-- Creator: CorelDRAW 2018 -->
<svg xmlns="http://www.w3.org/2000/svg" xml:space="preserve" width="29px" height="29px" version="1.0" style="shape-rendering:geometricPrecision; text-rendering:geometricPrecision; image-rendering:optimizeQuality; fill-rule:evenodd; clip-rule:evenodd"
viewBox="0 0 2.07 2.07"
 xmlns:xlink="http://www.w3.org/1999/xlink">
 <defs>
  <style type="text/css">
   <![CDATA[
    .fil0 {fill:#C300FF;fill-rule:nonzero}
   ]]>
  </style>
 </defs>
 <g id="Layer_x0020_1">
  <metadata id="CorelCorpID_0Corel-Layer"/>
  <path class="fil0" d="M1.92 0c0.04,0 0.08,0.01 0.11,0.04 0.02,0.03 0.04,0.07 0.04,0.11l0 1.77c0,0.04 -0.02,0.08 -0.04,0.11 -0.03,0.02 -0.07,0.04 -0.11,0.04l-1.77 0c-0.04,0 -0.08,-0.02 -0.11,-0.04 -0.03,-0.03 -0.04,-0.07 -0.04,-0.11l0 -1.77c0,-0.04 0.01,-0.08 0.04,-0.11 0.03,-0.03 0.07,-0.04 0.11,-0.04l1.77 0zm-1.3 1.77l0.01 0 0 -0.98 -0.31 0 0 0.98 0.3 0zm-0.27 -1.17c0.03,0.03 0.07,0.05 0.12,0.05 0.05,0 0.09,-0.02 0.13,-0.05 0.03,-0.04 0.05,-0.08 0.05,-0.13 0,-0.04 -0.02,-0.09 -0.05,-0.12 -0.04,-0.04 -0.08,-0.05 -0.13,-0.05 -0.05,0 -0.09,0.01 -0.12,0.05 -0.04,0.03 -0.05,0.08 -0.05,0.12 0,0.05 0.01,0.09 0.05,0.13zm1.42 1.17l0 -0.54c0,-0.07 0,-0.13 -0.01,-0.19 -0.01,-0.05 -0.03,-0.1 -0.05,-0.14 -0.03,-0.05 -0.06,-0.08 -0.11,-0.1 -0.06,-0.03 -0.12,-0.04 -0.19,-0.04 -0.07,0 -0.13,0.02 -0.18,0.05 -0.05,0.03 -0.09,0.07 -0.11,0.11l-0.01 0 0 -0.13 -0.29 0 0 0.98 0.31 0 0 -0.49c0,-0.07 0.01,-0.13 0.03,-0.18 0.03,-0.05 0.08,-0.07 0.15,-0.07 0.03,0 0.06,0.01 0.09,0.02 0.02,0.02 0.04,0.04 0.05,0.07 0.01,0.03 0.01,0.06 0.01,0.08 0.01,0.03 0.01,0.06 0.01,0.09l0 0.48 0.3 0z"/>
 </g>
</svg>
