<?xml version="1.0" encoding="UTF-8"?>
<!DOCTYPE svg PUBLIC "-//W3C//DTD SVG 1.0//EN" "http://www.w3.org/TR/2001/REC-SVG-20010904/DTD/svg10.dtd">
<!-- Creator: CorelDRAW 2018 -->
<svg xmlns="http://www.w3.org/2000/svg" xml:space="preserve" width="268px" height="48px" version="1.0" style="shape-rendering:geometricPrecision; text-rendering:geometricPrecision; image-rendering:optimizeQuality; fill-rule:evenodd; clip-rule:evenodd"
viewBox="0 0 30.53 5.45"
 xmlns:xlink="http://www.w3.org/1999/xlink">
 <defs>
  <style type="text/css">
   <![CDATA[
    .fil0 {fill:#C300FF}
    .fil1 {fill:#F0F3F5;fill-rule:nonzero}
   ]]>
  </style>
 </defs>
 <g id="Layer_x0020_1">
  <metadata id="CorelCorpID_0Corel-Layer"/>
  <path class="fil0" d="M30.38 0.85c0.03,0.11 0.05,0.26 0.08,0.43 0.02,0.17 0.04,0.34 0.05,0.5 0.01,0.17 0.01,0.32 0.02,0.46 0,0.14 0,0.26 0,0.36l0 0.13c0,0.85 -0.04,1.48 -0.15,1.88 -0.04,0.16 -0.13,0.31 -0.26,0.43 -0.12,0.12 -0.27,0.21 -0.44,0.25 -0.18,0.05 -0.52,0.09 -1.02,0.11 -0.5,0.03 -7.45,0.05 -7.87,0.05l-0.62 0c-1.62,0 -2.63,-0.05 -3.03,-0.16 -0.37,-0.1 -0.6,-0.33 -0.69,-0.68 -0.05,-0.18 -0.09,-0.43 -0.11,-0.74 -0.02,-0.32 -0.04,-0.59 -0.05,-0.8l0 -0.34c0,-0.85 0.05,-1.47 0.16,-1.88 0.04,-0.17 0.13,-0.32 0.25,-0.44 0.13,-0.12 0.27,-0.21 0.44,-0.25 0.18,-0.05 0.52,-0.09 1.03,-0.11 0.5,-0.02 0.96,-0.04 1.37,-0.05l0.63 0c1.61,0 9.12,0.05 9.51,0.16 0.17,0.04 0.32,0.13 0.44,0.25 0.13,0.12 0.21,0.27 0.26,0.44zm-10.4 3.39l-1.11 -1.46 0 1.46 -0.8 0 0 -3.3 0.8 0 0 1.45 1.1 -1.45 0.94 0 -1.27 1.62 1.32 1.68 -0.98 0zm2.05 -2.19c0.09,-0.14 0.21,-0.26 0.35,-0.34 0.14,-0.08 0.3,-0.12 0.47,-0.12l0 0.85 -0.22 0c-0.2,0 -0.35,0.04 -0.45,0.13 -0.1,0.08 -0.15,0.23 -0.15,0.45l0 1.22 -0.81 0 0 -2.62 0.81 0 0 0.43zm3.67 -0.43l0 2.62 -0.8 0 0 -0.36c-0.08,0.12 -0.19,0.21 -0.33,0.28 -0.14,0.07 -0.29,0.11 -0.46,0.11 -0.2,0 -0.38,-0.05 -0.53,-0.14 -0.16,-0.09 -0.28,-0.22 -0.36,-0.39 -0.09,-0.16 -0.13,-0.36 -0.13,-0.59l0 -1.53 0.8 0 0 1.42c0,0.17 0.05,0.31 0.14,0.41 0.09,0.1 0.21,0.14 0.36,0.14 0.16,0 0.28,-0.04 0.37,-0.14 0.09,-0.1 0.14,-0.24 0.14,-0.41l0 -1.42 0.8 0zm1.22 1.96l1.13 0 0 0.66 -2.03 0 0 -0.64 1.09 -1.32 -1.08 0 0 -0.66 2 0 0 0.63 -1.11 1.33z"/>
  <path class="fil1" d="M1.42 4.43c-0.26,0 -0.5,-0.04 -0.71,-0.13 -0.22,-0.08 -0.38,-0.21 -0.51,-0.38 -0.13,-0.17 -0.19,-0.38 -0.2,-0.61l0.94 0c0.02,0.13 0.07,0.23 0.14,0.3 0.08,0.08 0.19,0.11 0.32,0.11 0.13,0 0.23,-0.03 0.31,-0.09 0.07,-0.06 0.11,-0.14 0.11,-0.25 0,-0.09 -0.03,-0.17 -0.09,-0.22 -0.06,-0.06 -0.13,-0.11 -0.22,-0.15 -0.09,-0.04 -0.22,-0.08 -0.38,-0.13 -0.23,-0.07 -0.43,-0.15 -0.57,-0.22 -0.15,-0.07 -0.28,-0.18 -0.39,-0.32 -0.11,-0.14 -0.16,-0.33 -0.16,-0.55 0,-0.34 0.12,-0.61 0.37,-0.8 0.24,-0.19 0.56,-0.29 0.96,-0.29 0.4,0 0.72,0.1 0.97,0.29 0.25,0.19 0.38,0.46 0.39,0.8l-0.96 0c0,-0.12 -0.05,-0.21 -0.13,-0.28 -0.08,-0.06 -0.18,-0.1 -0.3,-0.1 -0.11,0 -0.2,0.03 -0.26,0.09 -0.07,0.05 -0.1,0.14 -0.1,0.24 0,0.12 0.06,0.21 0.17,0.28 0.11,0.06 0.28,0.14 0.51,0.21 0.24,0.08 0.43,0.16 0.58,0.23 0.15,0.07 0.27,0.18 0.38,0.32 0.11,0.13 0.16,0.31 0.16,0.53 0,0.21 -0.05,0.4 -0.16,0.57 -0.1,0.17 -0.26,0.3 -0.46,0.4 -0.2,0.1 -0.43,0.15 -0.71,0.15z"/>
  <path id="1" class="fil1" d="M6.86 1.47c0.36,0 0.65,0.11 0.86,0.33 0.21,0.21 0.32,0.52 0.32,0.9l0 1.7 -0.88 0 0 -1.58c0,-0.18 -0.05,-0.33 -0.15,-0.43 -0.1,-0.1 -0.24,-0.15 -0.41,-0.15 -0.17,0 -0.31,0.05 -0.41,0.15 -0.1,0.1 -0.15,0.25 -0.15,0.43l0 1.58 -0.88 0 0 -1.58c0,-0.18 -0.05,-0.33 -0.15,-0.43 -0.09,-0.1 -0.23,-0.15 -0.4,-0.15 -0.18,0 -0.31,0.05 -0.41,0.15 -0.1,0.1 -0.15,0.25 -0.15,0.43l0 1.58 -0.89 0 0 -2.9 0.89 0 0 0.36c0.09,-0.12 0.21,-0.21 0.35,-0.29 0.15,-0.07 0.31,-0.1 0.5,-0.1 0.22,0 0.41,0.05 0.58,0.14 0.17,0.09 0.31,0.23 0.4,0.4 0.1,-0.16 0.24,-0.29 0.41,-0.39 0.18,-0.1 0.37,-0.15 0.57,-0.15z"/>
  <path id="2" class="fil1" d="M8.98 1.2c-0.16,0 -0.29,-0.05 -0.39,-0.14 -0.09,-0.09 -0.14,-0.2 -0.14,-0.34 0,-0.14 0.05,-0.25 0.14,-0.34 0.1,-0.1 0.23,-0.14 0.39,-0.14 0.15,0 0.27,0.04 0.37,0.14 0.1,0.09 0.15,0.2 0.15,0.34 0,0.14 -0.05,0.25 -0.15,0.34 -0.1,0.09 -0.22,0.14 -0.37,0.14zm0.44 0.3l0 2.9 -0.89 0 0 -2.9 0.89 0z"/>
  <path id="3" class="fil1" d="M11.54 3.64l0 0.76 -0.45 0c-0.32,0 -0.57,-0.08 -0.75,-0.24 -0.18,-0.16 -0.27,-0.41 -0.27,-0.77l0 -1.15 -0.35 0 0 -0.74 0.35 0 0 -0.71 0.89 0 0 0.71 0.58 0 0 0.74 -0.58 0 0 1.16c0,0.09 0.02,0.15 0.06,0.19 0.04,0.03 0.11,0.05 0.21,0.05l0.31 0z"/>
  <path id="4" class="fil1" d="M13.68 1.47c0.34,0 0.6,0.11 0.8,0.33 0.2,0.22 0.3,0.52 0.3,0.9l0 1.7 -0.88 0 0 -1.58c0,-0.19 -0.05,-0.34 -0.15,-0.45 -0.1,-0.11 -0.23,-0.16 -0.4,-0.16 -0.17,0 -0.31,0.05 -0.41,0.16 -0.1,0.11 -0.15,0.26 -0.15,0.45l0 1.58 -0.89 0 0 -3.84 0.89 0 0 1.33c0.09,-0.13 0.21,-0.23 0.37,-0.31 0.16,-0.07 0.33,-0.11 0.52,-0.11z"/>
 </g>
</svg>
