<?xml version="1.0" encoding="UTF-8"?>
<!DOCTYPE svg PUBLIC "-//W3C//DTD SVG 1.0//EN" "http://www.w3.org/TR/2001/REC-SVG-20010904/DTD/svg10.dtd">
<!-- Creator: CorelDRAW 2018 -->
<svg xmlns="http://www.w3.org/2000/svg" xml:space="preserve" width="125px" height="77px" version="1.0" style="shape-rendering:geometricPrecision; text-rendering:geometricPrecision; image-rendering:optimizeQuality; fill-rule:evenodd; clip-rule:evenodd"
viewBox="0 0 16.58 10.17"
 xmlns:xlink="http://www.w3.org/1999/xlink">
 <defs>
  <style type="text/css">
   <![CDATA[
    .fil0 {fill:#C300FF;fill-rule:nonzero}
   ]]>
  </style>
 </defs>
 <g id="Layer_x0020_1">
  <metadata id="CorelCorpID_0Corel-Layer"/>
  <path class="fil0" d="M8.19 10.17c-0.05,0 -0.11,-0.01 -0.16,-0.05l-0.49 -0.28c-0.05,-0.04 -0.06,-0.06 -0.03,-0.08 0.09,-0.02 0.17,-0.05 0.24,-0.11 0.01,0 0.03,0.01 0.05,0.03l0.36 0.21c0.02,0.02 0.04,0.02 0.05,0l1.51 -0.86c0.01,-0.01 0.02,-0.03 0.02,-0.05l0 -1.71c0,-0.01 -0.01,-0.03 -0.02,-0.05l-1.51 -0.86c-0.01,-0.01 -0.03,-0.01 -0.05,0l-1.48 0.86c-0.01,0.02 -0.02,0.04 -0.02,0.05l0 1.71c0,0.02 0.01,0.04 0.02,0.05l0.39 0.24c0.12,0.05 0.21,0.05 0.27,0.01 0.07,-0.04 0.09,-0.1 0.09,-0.17l0 -1.71c0,-0.02 0.02,-0.03 0.06,-0.03l0.18 0c0.03,0 0.05,0.01 0.05,0.03l0 1.71c0,0.31 -0.15,0.47 -0.44,0.47 -0.1,0 -0.22,-0.03 -0.34,-0.08l-0.41 -0.23c-0.11,-0.07 -0.16,-0.17 -0.16,-0.29l0 -1.71c0,-0.12 0.05,-0.21 0.16,-0.28l1.5 -0.86c0.11,-0.07 0.21,-0.07 0.31,0l1.5 0.86c0.11,0.07 0.16,0.16 0.16,0.28l0 1.71c0,0.14 -0.05,0.23 -0.16,0.29l-1.5 0.85c-0.03,0.04 -0.09,0.05 -0.15,0.05zm1.21 -1.71c0,0.35 -0.25,0.52 -0.75,0.52 -0.53,0 -0.8,-0.18 -0.8,-0.54 0,-0.04 0.02,-0.05 0.05,-0.05l0.21 0c0.02,0 0.03,0 0.03,0.02 0.03,0.21 0.2,0.31 0.51,0.31 0.31,0 0.47,-0.08 0.47,-0.23 0,-0.12 -0.18,-0.2 -0.54,-0.23 -0.44,-0.04 -0.65,-0.18 -0.65,-0.45 0,-0.32 0.22,-0.49 0.67,-0.49 0.47,0 0.72,0.18 0.75,0.52 0,0.02 0,0.03 -0.01,0.04 -0.01,0.01 -0.02,0.01 -0.04,0.01l-0.18 0c-0.04,0 -0.05,0 -0.05,-0.02 -0.04,-0.19 -0.19,-0.29 -0.47,-0.29 -0.26,0 -0.39,0.07 -0.39,0.21 0,0.05 0.03,0.09 0.09,0.12 0.06,0.02 0.21,0.05 0.43,0.09 0.24,0.03 0.42,0.08 0.52,0.14 0.1,0.06 0.15,0.17 0.15,0.32zm1.43 -1.29c0,0.05 -0.01,0.1 -0.04,0.14 -0.03,0.04 -0.06,0.08 -0.12,0.1 -0.05,0.03 -0.1,0.04 -0.15,0.04 -0.07,0 -0.14,-0.02 -0.2,-0.08 -0.06,-0.05 -0.09,-0.11 -0.09,-0.2 0,-0.09 0.03,-0.16 0.09,-0.21 0.06,-0.05 0.13,-0.08 0.21,-0.08 0.08,0 0.15,0.03 0.21,0.08 0.06,0.05 0.09,0.12 0.09,0.21zm-0.3 0.24c0.17,0 0.25,-0.09 0.25,-0.24 0,-0.16 -0.08,-0.24 -0.25,-0.24 -0.16,0 -0.25,0.09 -0.25,0.25 0,0.17 0.09,0.24 0.25,0.23zm0.12 -0.09l-0.05 0c-0.02,-0.05 -0.03,-0.08 -0.03,-0.1 0,-0.02 -0.01,-0.03 -0.03,-0.03l-0.05 0 0 0.13 -0.08 0 0 -0.31 0.11 0c0.08,0 0.13,0.03 0.13,0.08 0,0.04 -0.03,0.06 -0.08,0.08 0.03,0 0.06,0.02 0.08,0.08 0,0.05 0,0.07 0,0.07zm-0.13 -0.18c0.03,0 0.05,-0.01 0.05,-0.04 0,-0.02 -0.01,-0.03 -0.03,-0.03l-0.05 0 0 0.07 0.03 0zm-6.97 -3.73l0 2.46c0,0.04 -0.02,0.06 -0.05,0.08 -0.04,0.02 -0.06,0.02 -0.08,0l-0.96 -0.54c-0.05,-0.04 -0.08,-0.09 -0.08,-0.16l0 -1.14c0,-0.08 -0.03,-0.15 -0.1,-0.18l-0.41 -0.23c-0.02,-0.02 -0.05,-0.03 -0.08,-0.03 -0.04,0 -0.07,0.01 -0.11,0.03l-0.41 0.23c-0.05,0.03 -0.08,0.1 -0.08,0.18l0 1.14c0,0.07 -0.03,0.12 -0.1,0.16l-0.94 0.54c-0.03,0.02 -0.06,0.02 -0.1,0 -0.03,-0.02 -0.05,-0.04 -0.05,-0.08l0 -2.46c0,-0.07 0.04,-0.12 0.1,-0.15l1.58 -0.94c0.04,-0.01 0.06,-0.02 0.08,-0.02l0.03 0c0.03,0 0.06,0.01 0.08,0.02l1.6 0.94c0.05,0.03 0.08,0.08 0.08,0.15zm8.68 -2.69l0 4.58c0,0.07 -0.03,0.12 -0.08,0.16l-1.58 0.93c-0.07,0.04 -0.14,0.04 -0.21,0l-1.58 -0.93c-0.07,-0.04 -0.1,-0.09 -0.1,-0.16l0 -1.84c0,-0.07 0.03,-0.13 0.1,-0.18l1.58 -0.9c0.07,-0.04 0.14,-0.04 0.21,0l0.39 0.23c0.07,0.03 0.1,0.02 0.1,-0.05l0 -2.44c0,-0.03 0.02,-0.06 0.04,-0.09 0.03,-0.03 0.06,-0.03 0.09,-0.01l0.96 0.54c0.05,0.04 0.08,0.09 0.08,0.16zm-1.19 3.34c0,-0.02 0,-0.03 0,-0.03l-0.55 -0.33c-0.02,0 -0.03,0 -0.05,0l-0.54 0.33c-0.02,0 -0.03,0.01 -0.03,0.03l0 0.62c0,0.04 0.01,0.05 0.03,0.05l0.54 0.31c0.02,0.02 0.03,0.02 0.03,0l0.57 -0.31c0,0 0,-0.01 0,-0.05l0 -0.62zm5.44 0l-0.94 0.54c-0.03,0.02 -0.07,0.02 -0.1,0 -0.03,-0.01 -0.05,-0.04 -0.05,-0.07l0 -0.47c0,-0.03 -0.02,-0.06 -0.05,-0.08l-0.5 -0.28c-0.03,-0.02 -0.06,-0.02 -0.1,0l-0.49 0.28c-0.04,0.02 -0.05,0.05 -0.05,0.08l0 0.57c0,0.03 0.01,0.07 0.05,0.1l1.61 0.91c0.03,0.02 0.05,0.04 0.05,0.08 0,0.03 -0.02,0.06 -0.05,0.07l-0.96 0.55c-0.07,0.03 -0.13,0.03 -0.19,0l-1.58 -0.91c-0.06,-0.03 -0.1,-0.08 -0.1,-0.15l0 -1.84c0,-0.07 0.04,-0.12 0.1,-0.16l1.58 -0.93c0.08,-0.04 0.13,-0.04 0.19,0l1.58 0.93c0.06,0.04 0.1,0.09 0.1,0.16l0 0.44c0,0.07 -0.04,0.13 -0.1,0.18zm-2 0.08l0.31 -0.19c0.02,0 0.03,0 0.03,0l0.31 0.19c0.02,0 0.02,0 0.02,0.02l0 0.37c0,0 0,0 -0.02,0.02l-0.31 0.18c0,0 -0.01,0 -0.03,0l-0.31 -0.18c-0.02,0 -0.02,-0.01 -0.02,-0.02l0 -0.37c0,0 0,-0.01 0.02,-0.02zm-6.58 1.11c0,0.02 0,0.04 0,0.05 -0.02,0.05 -0.05,0.1 -0.1,0.13l-1.58 0.91c-0.07,0.03 -0.13,0.03 -0.18,0l-1.61 -0.91c-0.07,-0.03 -0.1,-0.09 -0.1,-0.18l0 -1.81c0,-0.07 0.03,-0.12 0.1,-0.16l1.58 -0.93c0.07,-0.04 0.14,-0.04 0.21,0l1.58 0.93c0.07,0.04 0.1,0.09 0.1,0.16l0 1.81zm-1.94 -3.21l0.02 0 -0.02 0zm1.99 3.37l-0.02 -0.03 0 0.03 0.02 0z"/>
 </g>
</svg>
