<?xml version="1.0" encoding="UTF-8"?>
<!DOCTYPE svg PUBLIC "-//W3C//DTD SVG 1.0//EN" "http://www.w3.org/TR/2001/REC-SVG-20010904/DTD/svg10.dtd">
<!-- Creator: CorelDRAW 2018 -->
<svg xmlns="http://www.w3.org/2000/svg" xml:space="preserve" width="125px" height="66px" version="1.0" style="shape-rendering:geometricPrecision; text-rendering:geometricPrecision; image-rendering:optimizeQuality; fill-rule:evenodd; clip-rule:evenodd"
viewBox="0 0 106.15 55.74"
 xmlns:xlink="http://www.w3.org/1999/xlink">
 <defs>
  <style type="text/css">
   <![CDATA[
    .fil0 {fill:#C300FF;fill-rule:nonzero}
   ]]>
  </style>
 </defs>
 <g id="Layer_x0020_1">
  <metadata id="CorelCorpID_0Corel-Layer"/>
  <path class="fil0" d="M88.66 10.2c-9.8,-5.03 -21.66,-7.54 -35.58,-7.54 -13.93,0 -25.79,2.51 -35.59,7.54 -9.78,5.03 -14.67,10.92 -14.67,17.67 0,6.75 4.89,12.64 14.67,17.66 9.8,5.04 21.66,7.55 35.59,7.55 13.92,0 25.78,-2.51 35.58,-7.55 9.78,-5.02 14.68,-10.91 14.68,-17.66 0,-6.75 -4.9,-12.64 -14.68,-17.67zm-35.58 -10.2c9.62,0 18.5,1.25 26.62,3.74 8.12,2.49 14.56,5.86 19.32,10.12 4.76,4.26 7.13,8.93 7.13,14.01 0,5.08 -2.37,9.75 -7.13,14.01 -4.76,4.26 -11.2,7.63 -19.32,10.12 -8.12,2.49 -17,3.74 -26.62,3.74 -9.63,0 -18.5,-1.25 -26.63,-3.74 -8.12,-2.49 -14.56,-5.86 -19.32,-10.12 -4.75,-4.26 -7.13,-8.93 -7.13,-14.01 0,-2.55 0.64,-5.03 1.91,-7.46 1.27,-2.43 3.04,-4.64 5.31,-6.64 2.26,-1.99 5.02,-3.88 8.29,-5.65 3.26,-1.76 6.85,-3.22 10.77,-4.38 3.94,-1.16 8.17,-2.08 12.7,-2.73 4.53,-0.67 9.23,-1.01 14.1,-1.01zm-16.92 25.55c0.12,-0.55 0.16,-1.08 0.16,-1.57 0,-0.51 0,-0.95 0,-1.33 0,-0.39 -0.13,-0.73 -0.41,-0.99 -0.27,-0.29 -0.5,-0.54 -0.67,-0.76 -0.15,-0.22 -0.46,-0.39 -0.9,-0.49 -0.44,-0.11 -0.81,-0.2 -1.08,-0.26 -0.28,-0.05 -0.75,-0.11 -1.41,-0.16 -0.67,-0.06 -1.16,-0.09 -1.49,-0.09 -0.34,0 -0.92,0 -1.75,0 -0.83,0 -1.41,0 -1.75,0l-2.32 11.79c0.23,0 0.84,0 1.83,0 1,0 1.64,0 1.91,0 0.28,0 0.81,-0.03 1.57,-0.08 0.78,-0.06 1.3,-0.15 1.59,-0.26 0.26,-0.11 0.69,-0.24 1.24,-0.41 0.55,-0.17 0.96,-0.42 1.23,-0.75 0.29,-0.33 0.6,-0.69 0.92,-1.08 0.33,-0.38 0.61,-0.89 0.84,-1.5 0.21,-0.6 0.38,-1.28 0.49,-2.06zm-20.07 17.92l5.47 -27.87 11.77 0c3.54,0 6.09,0.87 7.65,2.64 1.54,1.77 2.09,4.15 1.65,7.14 -0.45,2.98 -1.77,5.47 -3.99,7.47 -0.55,0.55 -1.1,1.02 -1.66,1.4 -0.55,0.4 -1.19,0.7 -1.89,0.92 -0.72,0.21 -1.31,0.38 -1.76,0.5 -0.44,0.11 -1.19,0.18 -2.23,0.24 -1.05,0.05 -1.74,0.11 -2.07,0.17 -0.34,0.05 -1.22,0.08 -2.66,0.08 -1.43,0 -2.32,0 -2.65,0l-1.5 7.31 -6.13 0zm30.84 -35.35l6.15 0 -1.49 7.48c0.44,0 1.16,-0.03 2.15,-0.09 0.99,-0.05 1.74,-0.08 2.24,-0.08 0.49,0 1.13,0.03 1.91,0.08 0.78,0.06 1.4,0.12 1.91,0.17 0.5,0.06 1.02,0.16 1.57,0.33 0.55,0.17 1.05,0.34 1.49,0.49 0.45,0.17 0.83,0.43 1.16,0.75 0.22,0.33 0.45,0.61 0.66,0.84 0.23,0.21 0.37,0.52 0.43,0.9 0.05,0.39 0.1,0.75 0.15,1.08 0.06,0.34 0.06,0.83 0,1.5 -0.05,0.67 -0.1,1.25 -0.15,1.74 -0.06,0.5 -0.2,1.27 -0.43,2.32 -0.21,1.05 -0.41,1.98 -0.58,2.82 -0.15,0.83 -0.38,1.99 -0.66,3.48 -0.27,1.5 -0.58,2.85 -0.91,4.06l-6.14 0c0.34,-1.65 0.78,-3.75 1.33,-6.3 0.78,-3.76 1.19,-6.05 1.24,-6.87 0.06,-0.84 -0.08,-1.53 -0.41,-2.08 -0.11,-0.12 -0.22,-0.2 -0.34,-0.25 -0.11,-0.05 -0.24,-0.11 -0.41,-0.16 -0.17,-0.06 -0.35,-0.12 -0.58,-0.18 -0.22,-0.05 -0.46,-0.08 -0.75,-0.08 -0.27,0 -0.52,0 -0.73,0 -0.23,0 -0.57,0 -1.01,0 -0.44,0 -0.82,0 -1.16,0 -0.32,0 -0.78,0 -1.33,0 -0.55,0 -1.05,0 -1.48,0l-3.16 15.92 -6.13 0 5.46 -27.87zm36.83 17.43c0.12,-0.55 0.17,-1.08 0.17,-1.57 0,-0.51 -0.03,-0.95 -0.08,-1.33 -0.06,-0.39 -0.2,-0.73 -0.41,-0.99 -0.23,-0.29 -0.43,-0.54 -0.58,-0.76 -0.17,-0.22 -0.49,-0.39 -0.92,-0.49 -0.44,-0.11 -0.81,-0.2 -1.08,-0.26 -0.28,-0.05 -0.75,-0.11 -1.42,-0.16 -0.66,-0.06 -1.16,-0.09 -1.48,-0.09 -0.34,0 -0.92,0 -1.74,0 -0.84,0 -1.42,0 -1.74,0l-2.32 11.79c0.21,0 0.87,0 1.98,0 1.1,0 1.79,0 2.08,0 0.27,0 0.82,-0.06 1.65,-0.17 0.84,-0.11 1.39,-0.23 1.66,-0.34 0.28,-0.1 0.72,-0.33 1.33,-0.66 0.61,-0.33 1.05,-0.68 1.33,-1.08 0.27,-0.38 0.58,-0.91 0.91,-1.57 0.34,-0.67 0.55,-1.44 0.66,-2.32zm-20.07 17.92l5.48 -27.87 11.78 0c3.53,0 6.07,0.87 7.62,2.64 1.55,1.77 2.07,4.15 1.58,7.14 -0.5,2.98 -1.8,5.47 -3.9,7.47 -0.44,0.44 -0.95,0.82 -1.5,1.16 -0.55,0.33 -1.02,0.64 -1.4,0.91 -0.39,0.28 -0.95,0.46 -1.67,0.58 -0.71,0.11 -1.23,0.22 -1.57,0.32 -0.33,0.12 -0.99,0.17 -1.98,0.17 -1.01,0 -1.67,0.03 -2,0.09 -0.34,0.05 -1.13,0.08 -2.4,0.08 -1.28,0 -2.07,0 -2.41,0l-1.49 7.31 -6.14 0z"/>
 </g>
</svg>
