<?xml version="1.0" encoding="UTF-8"?>
<!DOCTYPE svg PUBLIC "-//W3C//DTD SVG 1.0//EN" "http://www.w3.org/TR/2001/REC-SVG-20010904/DTD/svg10.dtd">
<!-- Creator: CorelDRAW 2018 -->
<svg xmlns="http://www.w3.org/2000/svg" xml:space="preserve" width="33px" height="27px" version="1.0" style="shape-rendering:geometricPrecision; text-rendering:geometricPrecision; image-rendering:optimizeQuality; fill-rule:evenodd; clip-rule:evenodd"
viewBox="0 0 7.36 5.98"
 xmlns:xlink="http://www.w3.org/1999/xlink">
 <defs>
  <style type="text/css">
   <![CDATA[
    .fil0 {fill:#C300FF;fill-rule:nonzero}
   ]]>
  </style>
 </defs>
 <g id="Layer_x0020_1">
  <metadata id="CorelCorpID_0Corel-Layer"/>
  <path class="fil0" d="M6.59 1.49c0.01,0.04 0.02,0.1 0.02,0.19 0,0.51 -0.1,1.01 -0.29,1.52 -0.19,0.5 -0.46,0.96 -0.81,1.38 -0.35,0.41 -0.8,0.75 -1.36,1.01 -0.55,0.26 -1.17,0.39 -1.84,0.39 -0.84,0 -1.61,-0.23 -2.31,-0.68 0.11,0.01 0.23,0.02 0.36,0.02 0.7,0 1.33,-0.22 1.88,-0.65 -0.33,0 -0.63,-0.1 -0.88,-0.3 -0.26,-0.19 -0.43,-0.44 -0.53,-0.74 0.1,0.01 0.19,0.02 0.28,0.02 0.13,0 0.26,-0.02 0.4,-0.04 -0.23,-0.05 -0.44,-0.15 -0.62,-0.29 -0.18,-0.15 -0.32,-0.32 -0.43,-0.53 -0.11,-0.2 -0.16,-0.42 -0.16,-0.66l0 -0.03c0.21,0.12 0.44,0.19 0.68,0.2 -0.45,-0.31 -0.68,-0.73 -0.68,-1.27 0,-0.26 0.07,-0.52 0.22,-0.76 0.37,0.47 0.83,0.85 1.37,1.12 0.54,0.28 1.12,0.44 1.73,0.46 -0.02,-0.11 -0.03,-0.23 -0.03,-0.34 0,-0.41 0.15,-0.77 0.44,-1.06 0.29,-0.3 0.64,-0.45 1.05,-0.45 0.45,0 0.82,0.16 1.11,0.47 0.35,-0.06 0.67,-0.18 0.96,-0.35 -0.11,0.35 -0.33,0.63 -0.66,0.83 0.29,-0.04 0.58,-0.12 0.87,-0.25 -0.22,0.31 -0.47,0.57 -0.77,0.79z"/>
 </g>
</svg>
