<?xml version="1.0" encoding="UTF-8"?>
<!DOCTYPE svg PUBLIC "-//W3C//DTD SVG 1.0//EN" "http://www.w3.org/TR/2001/REC-SVG-20010904/DTD/svg10.dtd">
<!-- Creator: CorelDRAW 2018 -->
<svg xmlns="http://www.w3.org/2000/svg" xml:space="preserve" width="131px" height="139px" version="1.0" style="shape-rendering:geometricPrecision; text-rendering:geometricPrecision; image-rendering:optimizeQuality; fill-rule:evenodd; clip-rule:evenodd"
viewBox="0 0 7.51 7.93"
 xmlns:xlink="http://www.w3.org/1999/xlink">
 <defs>
  <style type="text/css">
   <![CDATA[
    .fil0 {fill:#ECF1FF}
    .fil1 {fill:#7194E6;fill-rule:nonzero}
   ]]>
  </style>
 </defs>
 <g id="Layer_x0020_1">
  <metadata id="CorelCorpID_0Corel-Layer"/>
  <g id="_1073757248">
   <rect class="fil0" width="7.51" height="7.93" rx="1.42" ry="1.42"/>
   <path class="fil1" d="M5.22 3.88c0.12,0 0.23,0.04 0.32,0.13 0.1,0.09 0.14,0.2 0.14,0.32 0,0.13 -0.04,0.24 -0.13,0.33 -0.1,0.09 -0.21,0.13 -0.33,0.13l-0.28 0 0 0.74c0,0.1 -0.03,0.19 -0.1,0.26 -0.07,0.07 -0.16,0.1 -0.26,0.1l-0.7 0 0 -0.27c0,-0.14 -0.05,-0.26 -0.14,-0.35 -0.1,-0.1 -0.22,-0.14 -0.36,-0.14 -0.13,0 -0.25,0.04 -0.35,0.14 -0.1,0.09 -0.15,0.21 -0.15,0.35l0 0.27 -0.69 0c-0.1,0 -0.19,-0.03 -0.26,-0.1 -0.07,-0.07 -0.11,-0.16 -0.11,-0.26l0 -0.7 0.28 0c0.14,0 0.25,-0.05 0.35,-0.14 0.09,-0.1 0.14,-0.22 0.14,-0.36 0,-0.14 -0.05,-0.25 -0.14,-0.35 -0.1,-0.1 -0.21,-0.15 -0.35,-0.15l-0.28 0 0 -0.69c0,-0.1 0.04,-0.19 0.11,-0.26 0.07,-0.07 0.16,-0.11 0.26,-0.11l0.74 0 0 -0.27c0,-0.13 0.04,-0.23 0.13,-0.33 0.09,-0.09 0.2,-0.14 0.32,-0.14 0.13,0 0.23,0.05 0.32,0.14 0.1,0.1 0.14,0.2 0.14,0.33l0 0.27 0.74 0c0.1,0 0.18,0.04 0.26,0.11 0.07,0.07 0.1,0.16 0.1,0.26l0 0.74 0.28 0z"/>
  </g>
 </g>
</svg>
