<?xml version="1.0" encoding="UTF-8"?>
<!DOCTYPE svg PUBLIC "-//W3C//DTD SVG 1.0//EN" "http://www.w3.org/TR/2001/REC-SVG-20010904/DTD/svg10.dtd">
<!-- Creator: CorelDRAW 2018 -->
<svg xmlns="http://www.w3.org/2000/svg" xml:space="preserve" width="131px" height="139px" version="1.0" style="shape-rendering:geometricPrecision; text-rendering:geometricPrecision; image-rendering:optimizeQuality; fill-rule:evenodd; clip-rule:evenodd"
viewBox="0 0 17.44 18.41"
 xmlns:xlink="http://www.w3.org/1999/xlink">
 <defs>
  <style type="text/css">
   <![CDATA[
    .fil0 {fill:#FFF6EA}
    .fil1 {fill:#FBA80E;fill-rule:nonzero}
   ]]>
  </style>
 </defs>
 <g id="Layer_x0020_1">
  <metadata id="CorelCorpID_0Corel-Layer"/>
  <g id="_1072890560">
   <rect class="fil0" width="17.44" height="18.41" rx="3.3" ry="3.3"/>
   <path class="fil1" d="M6.47 10.55l6.29 0 -1.58 -2.02 -1.11 1.35 -1.58 -2.02 -2.02 2.69zm6.74 -4.94c0.23,0 0.44,0.09 0.63,0.27 0.18,0.18 0.27,0.39 0.27,0.63l0 4.49c0,0.24 -0.09,0.45 -0.27,0.63 -0.18,0.18 -0.39,0.27 -0.63,0.27l-7.18 0c-0.24,0 -0.45,-0.09 -0.63,-0.27 -0.19,-0.18 -0.28,-0.39 -0.28,-0.63l0.02 -5.39c0,-0.24 0.09,-0.45 0.26,-0.62 0.17,-0.18 0.38,-0.27 0.63,-0.27l2.69 0 0.91 0.89 3.58 0zm-8.97 0.9l0 6.3 8.08 0 0 0.88 -8.08 0c-0.24,0 -0.45,-0.09 -0.63,-0.26 -0.19,-0.17 -0.28,-0.38 -0.28,-0.62l0 -6.3 0.91 0z"/>
  </g>
 </g>
</svg>
