<?xml version="1.0" encoding="UTF-8"?>
<!DOCTYPE svg PUBLIC "-//W3C//DTD SVG 1.0//EN" "http://www.w3.org/TR/2001/REC-SVG-20010904/DTD/svg10.dtd">
<!-- Creator: CorelDRAW 2018 -->
<svg xmlns="http://www.w3.org/2000/svg" xml:space="preserve" width="131px" height="139px" version="1.0" style="shape-rendering:geometricPrecision; text-rendering:geometricPrecision; image-rendering:optimizeQuality; fill-rule:evenodd; clip-rule:evenodd"
viewBox="0 0 17.44 18.41"
 xmlns:xlink="http://www.w3.org/1999/xlink">
 <defs>
  <style type="text/css">
   <![CDATA[
    .fil0 {fill:#F9F4F8}
    .fil1 {fill:#C28AFF;fill-rule:nonzero}
   ]]>
  </style>
 </defs>
 <g id="Layer_x0020_1">
  <metadata id="CorelCorpID_0Corel-Layer"/>
  <g id="_830081976">
   <rect class="fil0" width="17.44" height="18.41" rx="3.3" ry="3.3"/>
   <path class="fil1" d="M9.63 10.32l1.55 -1.56 -1.55 -1.57 0 1.11 -2.26 0c-0.12,0 -0.23,0.05 -0.31,0.14 -0.09,0.09 -0.13,0.2 -0.13,0.32l0 1.79 0.89 0 0 -1.34 1.81 0 0 1.11zm3.45 -1.43c0.08,0.1 0.13,0.21 0.13,0.33 0,0.12 -0.05,0.22 -0.13,0.3l-4.04 4.04c-0.09,0.09 -0.19,0.13 -0.32,0.13 -0.12,0 -0.23,-0.04 -0.31,-0.13l-4.05 -4.04c-0.08,-0.08 -0.12,-0.19 -0.12,-0.31 0,-0.13 0.04,-0.23 0.12,-0.32l4.05 -4.04c0.08,-0.09 0.19,-0.13 0.31,-0.13 0.13,0 0.23,0.04 0.32,0.13l4.04 4.04z"/>
  </g>
 </g>
</svg>
