<?xml version="1.0" encoding="UTF-8"?>
<!DOCTYPE svg PUBLIC "-//W3C//DTD SVG 1.0//EN" "http://www.w3.org/TR/2001/REC-SVG-20010904/DTD/svg10.dtd">
<!-- Creator: CorelDRAW 2018 -->
<svg xmlns="http://www.w3.org/2000/svg" xml:space="preserve" width="176px" height="391px" version="1.0" style="shape-rendering:geometricPrecision; text-rendering:geometricPrecision; image-rendering:optimizeQuality; fill-rule:evenodd; clip-rule:evenodd"
viewBox="0 0 13.04 29.04"
 xmlns:xlink="http://www.w3.org/1999/xlink">
 <defs>
  <style type="text/css">
   <![CDATA[
    .fil0 {fill:#EFEDF8}
   ]]>
  </style>
 </defs>
 <g id="Layer_x0020_1">
  <metadata id="CorelCorpID_0Corel-Layer"/>
  <path class="fil0" d="M1 0c0.55,0 1,0.45 1,1 0,0.55 -0.45,1 -1,1 -0.55,0 -1,-0.45 -1,-1 0,-0.55 0.45,-1 1,-1zm11.05 27.04c0.55,0 0.99,0.45 0.99,1 0,0.55 -0.44,1 -0.99,1 -0.55,0 -1,-0.45 -1,-1 0,-0.55 0.45,-1 1,-1zm0 -5.41c0.55,0 0.99,0.45 0.99,1 0,0.55 -0.44,1 -0.99,1 -0.55,0 -1,-0.45 -1,-1 0,-0.55 0.45,-1 1,-1zm0 -5.4c0.55,0 0.99,0.44 0.99,0.99 0,0.55 -0.44,1 -0.99,1 -0.55,0 -1,-0.45 -1,-1 0,-0.55 0.45,-0.99 1,-0.99zm0 -5.41c0.55,0 0.99,0.44 0.99,0.99 0,0.56 -0.44,1 -0.99,1 -0.55,0 -1,-0.44 -1,-1 0,-0.55 0.45,-0.99 1,-0.99zm0 -5.41c0.55,0 0.99,0.45 0.99,1 0,0.55 -0.44,0.99 -0.99,0.99 -0.55,0 -1,-0.44 -1,-0.99 0,-0.55 0.45,-1 1,-1zm-5.53 21.63c0.55,0 1,0.45 1,1 0,0.55 -0.45,1 -1,1 -0.55,0 -1,-0.45 -1,-1 0,-0.55 0.45,-1 1,-1zm0 -5.41c0.55,0 1,0.45 1,1 0,0.55 -0.45,1 -1,1 -0.55,0 -1,-0.45 -1,-1 0,-0.55 0.45,-1 1,-1zm0 -5.4c0.55,0 1,0.44 1,0.99 0,0.55 -0.45,1 -1,1 -0.55,0 -1,-0.45 -1,-1 0,-0.55 0.45,-0.99 1,-0.99zm0 -5.41c0.55,0 1,0.44 1,0.99 0,0.56 -0.45,1 -1,1 -0.55,0 -1,-0.44 -1,-1 0,-0.55 0.45,-0.99 1,-0.99zm0 -5.41c0.55,0 1,0.45 1,1 0,0.55 -0.45,0.99 -1,0.99 -0.55,0 -1,-0.44 -1,-0.99 0,-0.55 0.45,-1 1,-1zm-5.52 21.63c0.55,0 1,0.45 1,1 0,0.55 -0.45,1 -1,1 -0.55,0 -1,-0.45 -1,-1 0,-0.55 0.45,-1 1,-1zm0 -5.41c0.55,0 1,0.45 1,1 0,0.55 -0.45,1 -1,1 -0.55,0 -1,-0.45 -1,-1 0,-0.55 0.45,-1 1,-1zm0 -5.4c0.55,0 1,0.44 1,0.99 0,0.55 -0.45,1 -1,1 -0.55,0 -1,-0.45 -1,-1 0,-0.55 0.45,-0.99 1,-0.99zm0 -5.41c0.55,0 1,0.44 1,0.99 0,0.56 -0.45,1 -1,1 -0.55,0 -1,-0.44 -1,-1 0,-0.55 0.45,-0.99 1,-0.99zm0 -5.41c0.55,0 1,0.45 1,1 0,0.55 -0.45,0.99 -1,0.99 -0.55,0 -1,-0.44 -1,-0.99 0,-0.55 0.45,-1 1,-1zm11.05 -5.41c0.55,0 0.99,0.45 0.99,1 0,0.55 -0.44,1 -0.99,1 -0.55,0 -1,-0.45 -1,-1 0,-0.55 0.45,-1 1,-1zm-5.53 0c0.55,0 1,0.45 1,1 0,0.55 -0.45,1 -1,1 -0.55,0 -1,-0.45 -1,-1 0,-0.55 0.45,-1 1,-1z"/>
 </g>
</svg>
