<?xml version="1.0" encoding="UTF-8"?>
<!DOCTYPE svg PUBLIC "-//W3C//DTD SVG 1.0//EN" "http://www.w3.org/TR/2001/REC-SVG-20010904/DTD/svg10.dtd">
<!-- Creator: CorelDRAW 2018 -->
<svg xmlns="http://www.w3.org/2000/svg" xml:space="preserve" width="131px" height="139px" version="1.0" style="shape-rendering:geometricPrecision; text-rendering:geometricPrecision; image-rendering:optimizeQuality; fill-rule:evenodd; clip-rule:evenodd"
viewBox="0 0 25.24 26.64"
 xmlns:xlink="http://www.w3.org/1999/xlink">
 <defs>
  <style type="text/css">
   <![CDATA[
    .fil0 {fill:#FFEEF7}
    .fil1 {fill:#D85A8A;fill-rule:nonzero}
   ]]>
  </style>
 </defs>
 <g id="Layer_x0020_1">
  <metadata id="CorelCorpID_0Corel-Layer"/>
  <g id="_824767064">
   <rect class="fil0" width="25.24" height="26.64" rx="4.77" ry="4.77"/>
   <path class="fil1" d="M16.7 14.8c0.15,0.07 0.29,0.19 0.39,0.34 0.11,0.15 0.16,0.31 0.16,0.5l0 0.11 -0.46 3.28c-0.03,0.23 -0.13,0.42 -0.3,0.56 -0.17,0.15 -0.37,0.22 -0.6,0.22l-4.2 0c-0.12,0 -0.24,-0.03 -0.35,-0.07 -0.1,-0.04 -0.2,-0.11 -0.29,-0.19l-3.06 -3.07 0.49 -0.5c0.05,-0.05 0.13,-0.1 0.21,-0.14 0.08,-0.04 0.17,-0.06 0.28,-0.06 0.03,0 0.05,0.01 0.07,0.02 0.02,0.01 0.05,0.01 0.07,0.01l2.12 0.44 0 -6.64c0,-0.26 0.09,-0.48 0.27,-0.66 0.17,-0.17 0.39,-0.26 0.65,-0.26 0.27,0 0.48,0.09 0.66,0.26 0.18,0.18 0.27,0.4 0.27,0.66l0 3.71 0.49 0c0.06,0 0.11,0.01 0.16,0.02 0.05,0.02 0.1,0.03 0.16,0.04l2.81 1.42zm-6.08 -2.87c-0.38,-0.24 -0.68,-0.57 -0.9,-0.98 -0.23,-0.41 -0.35,-0.86 -0.35,-1.34 0,-0.76 0.27,-1.41 0.81,-1.96 0.55,-0.55 1.2,-0.82 1.97,-0.82 0.77,0 1.42,0.27 1.97,0.82 0.54,0.55 0.81,1.2 0.81,1.96 0,0.48 -0.1,0.93 -0.32,1.34 -0.22,0.41 -0.52,0.74 -0.89,0.98l0 -2.32c0,-0.41 -0.16,-0.77 -0.47,-1.08 -0.3,-0.3 -0.67,-0.45 -1.1,-0.45 -0.41,0 -0.77,0.15 -1.07,0.45 -0.31,0.31 -0.46,0.67 -0.46,1.08l0 2.32z"/>
  </g>
 </g>
</svg>
