<?xml version="1.0" encoding="UTF-8"?>
<!DOCTYPE svg PUBLIC "-//W3C//DTD SVG 1.0//EN" "http://www.w3.org/TR/2001/REC-SVG-20010904/DTD/svg10.dtd">
<!-- Creator: CorelDRAW 2018 -->
<svg xmlns="http://www.w3.org/2000/svg" xml:space="preserve" width="42px" height="42px" version="1.0" style="shape-rendering:geometricPrecision; text-rendering:geometricPrecision; image-rendering:optimizeQuality; fill-rule:evenodd; clip-rule:evenodd"
viewBox="0 0 1.05 1.05"
 xmlns:xlink="http://www.w3.org/1999/xlink">
 <defs>
  <style type="text/css">
   <![CDATA[
    .fil0 {fill:#4C2FFF;fill-rule:nonzero}
   ]]>
  </style>
 </defs>
 <g id="Layer_x0020_1">
  <metadata id="CorelCorpID_0Corel-Layer"/>
  <path class="fil0" d="M0.95 0c0.03,0 0.05,0.01 0.07,0.03 0.02,0.02 0.03,0.04 0.03,0.07l0 0.85c0,0.03 -0.01,0.05 -0.03,0.07 -0.02,0.02 -0.04,0.03 -0.07,0.03l-0.85 0c-0.03,0 -0.05,-0.01 -0.07,-0.03 -0.02,-0.02 -0.03,-0.04 -0.03,-0.07l0 -0.85c0,-0.03 0.01,-0.05 0.03,-0.07 0.02,-0.02 0.04,-0.03 0.07,-0.03l0.85 0zm-0.54 0.27c0,-0.03 -0.01,-0.05 -0.03,-0.06 -0.02,-0.01 -0.04,-0.01 -0.06,0 -0.02,0.01 -0.03,0.03 -0.03,0.06 0,0.01 0,0.03 0.01,0.04 0.02,0.01 0.03,0.02 0.05,0.02 0,0 0.01,0 0.02,0 0.01,-0.01 0.02,-0.01 0.03,-0.02 0.01,-0.01 0.01,-0.03 0.01,-0.04zm0.37 0.54c0.06,0 0.1,-0.04 0.12,-0.13l-0.04 -0.01c-0.02,0.04 -0.04,0.07 -0.05,0.07 -0.02,0 -0.03,-0.01 -0.03,-0.03 0.01,-0.01 0.02,-0.06 0.04,-0.14 0.01,-0.04 0.01,-0.07 0.01,-0.1 -0.01,-0.03 -0.02,-0.05 -0.04,-0.07 -0.02,-0.01 -0.04,-0.02 -0.07,-0.02 -0.02,0 -0.04,0.01 -0.07,0.03 -0.03,0.01 -0.05,0.04 -0.07,0.07l0.02 -0.09 -0.16 0 -0.02 0.08 0.08 0 -0.05 0.19c-0.02,0.04 -0.05,0.07 -0.09,0.08 -0.03,0 -0.04,-0.01 -0.04,-0.03 0,-0.01 0.02,-0.12 0.07,-0.32l-0.18 0 -0.02 0.08 0.08 0c-0.04,0.15 -0.06,0.23 -0.06,0.24 0,0.04 0.01,0.07 0.04,0.08 0.03,0.02 0.06,0.02 0.09,0.01 0.04,-0.01 0.07,-0.04 0.09,-0.08l-0.02 0.08 0.11 0 0.06 -0.24c0.01,-0.06 0.04,-0.09 0.08,-0.1 0.03,0 0.05,0.01 0.06,0.04 0.01,0.02 0.01,0.04 0,0.06 0,0 -0.01,0.01 -0.01,0.03 -0.01,0.02 -0.01,0.04 -0.02,0.05 0,0.01 0,0.03 0,0.05 -0.01,0.01 -0.01,0.03 -0.01,0.04 0.01,0.01 0.01,0.03 0.01,0.04 0.01,0.01 0.02,0.02 0.03,0.03 0.02,0 0.04,0.01 0.06,0.01z"/>
 </g>
</svg>
