<?xml version="1.0" encoding="UTF-8"?>
<!DOCTYPE svg PUBLIC "-//W3C//DTD SVG 1.0//EN" "http://www.w3.org/TR/2001/REC-SVG-20010904/DTD/svg10.dtd">
<!-- Creator: CorelDRAW 2018 -->
<svg xmlns="http://www.w3.org/2000/svg" xml:space="preserve" width="124px" height="38px" version="1.0" style="shape-rendering:geometricPrecision; text-rendering:geometricPrecision; image-rendering:optimizeQuality; fill-rule:evenodd; clip-rule:evenodd"
viewBox="0 0 5.49 1.68"
 xmlns:xlink="http://www.w3.org/1999/xlink">
 <defs>
  <style type="text/css">
   <![CDATA[
    .fil0 {fill:#FEFEFE;fill-rule:nonzero}
   ]]>
  </style>
 </defs>
 <g id="Layer_x0020_1">
  <metadata id="CorelCorpID_0Corel-Layer"/>
  <path class="fil0" d="M1.98 1.39l0 -1.14c-0.05,-0.02 -0.11,-0.03 -0.17,-0.04 -0.06,-0.01 -0.12,-0.01 -0.18,-0.01 -0.08,0 -0.18,0.01 -0.28,0.04 -0.11,0.03 -0.19,0.07 -0.26,0.11l0 1.13c0.07,-0.04 0.15,-0.07 0.26,-0.1 0.1,-0.03 0.2,-0.04 0.28,-0.04 0.06,0 0.12,0 0.18,0.01 0.06,0.01 0.12,0.02 0.17,0.04zm-0.35 -1.39c0.1,0 0.21,0.01 0.31,0.04 0.1,0.02 0.18,0.06 0.24,0.11l0 1.44c0,0.01 -0.01,0.02 -0.02,0.04 -0.01,0.01 -0.02,0.01 -0.03,0.01 -0.01,0 -0.01,0 -0.01,0 -0.01,0 -0.01,0 -0.01,0 -0.07,-0.04 -0.15,-0.07 -0.23,-0.08 -0.08,-0.02 -0.17,-0.02 -0.25,-0.02 -0.08,0 -0.18,0.01 -0.28,0.04 -0.11,0.03 -0.19,0.06 -0.26,0.1 -0.07,-0.05 -0.16,-0.09 -0.25,-0.11 -0.1,-0.02 -0.2,-0.03 -0.29,-0.03 -0.07,0 -0.15,0 -0.24,0.02 -0.09,0.02 -0.17,0.05 -0.24,0.08 0,0 0,0 -0.01,0 0,0.01 0,0.01 -0.01,0.01 -0.01,0 -0.02,-0.01 -0.03,-0.02 -0.01,-0.01 -0.02,-0.02 -0.02,-0.03l0 -1.45c0.07,-0.05 0.16,-0.09 0.25,-0.12 0.1,-0.02 0.2,-0.03 0.3,-0.03 0.09,0 0.19,0.01 0.29,0.03 0.09,0.03 0.18,0.07 0.25,0.12 0.07,-0.05 0.16,-0.09 0.25,-0.12 0.1,-0.02 0.2,-0.03 0.29,-0.03z"/>
  <path class="fil0" d="M2.97 1.45l-0.32 0 0 -0.22 0.31 0c0.08,0 0.14,-0.02 0.2,-0.05 0.05,-0.02 0.09,-0.07 0.11,-0.12 0.03,-0.06 0.04,-0.14 0.04,-0.23 0,-0.09 -0.01,-0.16 -0.04,-0.22 -0.02,-0.06 -0.06,-0.1 -0.11,-0.13 -0.06,-0.03 -0.12,-0.04 -0.2,-0.04l-0.31 0 0 -0.22 0.33 0c0.12,0 0.23,0.02 0.32,0.07 0.08,0.05 0.15,0.12 0.2,0.21 0.05,0.09 0.07,0.2 0.07,0.33 0,0.13 -0.02,0.24 -0.07,0.33 -0.05,0.09 -0.12,0.17 -0.21,0.21 -0.09,0.05 -0.19,0.08 -0.32,0.08zm-0.18 -1.23l0 1.23 -0.25 0 0 -1.23 0.25 0z"/>
  <path id="1" class="fil0" d="M4.13 1.47c-0.1,0 -0.18,-0.02 -0.25,-0.06 -0.07,-0.04 -0.12,-0.09 -0.16,-0.17 -0.03,-0.07 -0.05,-0.15 -0.05,-0.25 0,-0.09 0.02,-0.18 0.05,-0.25 0.04,-0.07 0.09,-0.13 0.16,-0.17 0.07,-0.04 0.14,-0.06 0.23,-0.06 0.07,0 0.12,0.01 0.18,0.03 0.05,0.02 0.09,0.05 0.13,0.09 0.04,0.04 0.07,0.09 0.1,0.15 0.02,0.05 0.03,0.12 0.03,0.2l0 0.07 -0.78 0 0 -0.16 0.66 0 -0.12 0.05c0,-0.05 -0.01,-0.09 -0.02,-0.13 -0.02,-0.03 -0.04,-0.06 -0.07,-0.08 -0.03,-0.02 -0.06,-0.03 -0.1,-0.03 -0.05,0 -0.08,0.01 -0.11,0.03 -0.03,0.02 -0.05,0.05 -0.07,0.08 -0.01,0.03 -0.02,0.07 -0.02,0.12l0 0.11c0,0.05 0.01,0.09 0.03,0.13 0.01,0.03 0.04,0.06 0.07,0.08 0.03,0.02 0.07,0.03 0.11,0.03 0.03,0 0.05,-0.01 0.08,-0.02 0.02,-0.01 0.04,-0.02 0.06,-0.03 0.01,-0.02 0.03,-0.04 0.04,-0.06l0.23 0.01c-0.01,0.06 -0.03,0.11 -0.07,0.15 -0.04,0.05 -0.08,0.08 -0.14,0.1 -0.06,0.02 -0.13,0.04 -0.2,0.04z"/>
  <polygon id="2" class="fil0" points="5.49,0.52 5.17,1.45 4.88,1.45 4.56,0.52 4.83,0.52 5.02,1.19 5.03,1.19 5.22,0.52 "/>
 </g>
</svg>
