<?xml version="1.0" encoding="UTF-8"?>
<!DOCTYPE svg PUBLIC "-//W3C//DTD SVG 1.0//EN" "http://www.w3.org/TR/2001/REC-SVG-20010904/DTD/svg10.dtd">
<!-- Creator: CorelDRAW 2018 -->
<svg xmlns="http://www.w3.org/2000/svg" xml:space="preserve" width="1183px" height="1296px" version="1.0" style="shape-rendering:geometricPrecision; text-rendering:geometricPrecision; image-rendering:optimizeQuality; fill-rule:evenodd; clip-rule:evenodd"
viewBox="0 0 7392.63 8099.73"
 xmlns:xlink="http://www.w3.org/1999/xlink">
 <defs>
  <style type="text/css">
   <![CDATA[
    .str0 {stroke:#E6E7E8;stroke-width:13.02;stroke-miterlimit:2.61313}
    .fil3 {fill:#FEFEFE}
    .fil0 {fill:#F5F3FE}
    .fil2 {fill:#FEFEFE;fill-rule:nonzero}
    .fil4 {fill:#34353A;fill-rule:nonzero}
    .fil1 {fill:url(#id0)}
    .fil8 {fill:url(#id1)}
    .fil7 {fill:url(#id2)}
    .fil6 {fill:url(#id3);fill-rule:nonzero}
    .fil5 {fill:url(#id4);fill-rule:nonzero}
   ]]>
  </style>
  <linearGradient id="id0" gradientUnits="userSpaceOnUse" x1="289.86" y1="1731.08" x2="3145.37" y2="3540.19">
   <stop offset="0" style="stop-opacity:1; stop-color:#4C2FFF"/>
   <stop offset="1" style="stop-opacity:1; stop-color:#8374FF"/>
  </linearGradient>
  <linearGradient id="id1" gradientUnits="userSpaceOnUse" xlink:href="#id0" x1="1412.94" y1="5614.19" x2="1828.81" y2="5824">
  </linearGradient>
  <linearGradient id="id2" gradientUnits="userSpaceOnUse" xlink:href="#id0" x1="1797.08" y1="5647.92" x2="2074.39" y2="5767.98">
  </linearGradient>
  <linearGradient id="id3" gradientUnits="userSpaceOnUse" xlink:href="#id0" x1="5463.3" y1="4681.67" x2="5886.73" y2="4975.08">
  </linearGradient>
  <linearGradient id="id4" gradientUnits="userSpaceOnUse" xlink:href="#id0" x1="5399.61" y1="727.31" x2="5950.43" y2="1084.96">
  </linearGradient>
 </defs>
 <g id="Layer_x0020_1">
  <metadata id="CorelCorpID_0Corel-Layer"/>
  <g id="_1071251304">
   <circle class="fil0" cx="3775.2" cy="3800.97" r="3137.92"/>
   <g>
    <rect class="fil1" x="6.51" y="998.76" width="3422.21" height="3273.75" rx="328.16" ry="328.16"/>
    <path class="fil2" d="M1144.55 2785.06l0 -224.43 88.44 0c16.96,0 31.46,3.24 43.44,9.72 12.03,6.47 21.18,15.42 27.56,26.89 6.37,11.41 9.56,24.63 9.56,39.59 0,14.86 -3.19,27.97 -9.62,39.33 -6.42,11.31 -15.73,20.21 -27.96,26.58 -12.19,6.38 -26.9,9.56 -44.17,9.56l-56.35 0 0 -37.94 48.64 0c9.15,0 16.71,-1.64 22.67,-4.83 5.97,-3.24 10.44,-7.67 13.42,-13.27 2.94,-5.6 4.43,-12.08 4.43,-19.43 0,-7.51 -1.49,-14.09 -4.43,-19.64 -2.98,-5.61 -7.45,-9.93 -13.47,-13.06 -6.07,-3.08 -13.62,-4.63 -22.77,-4.63l-32.09 0 0 185.56 -47.3 0z"/>
    <path id="1" class="fil2" d="M1333.44 2785.06l0 -168.38 45.04 0 0 29.5 1.8 0c3.09,-10.43 8.28,-18.35 15.48,-23.75 7.25,-5.34 15.52,-8.02 24.89,-8.02 2.41,0 4.93,0.1 7.61,0.36 2.67,0.26 5.03,0.67 7.14,1.29l0 41.29c-2.21,-0.73 -5.25,-1.3 -9.1,-1.75 -3.85,-0.47 -7.46,-0.68 -10.79,-0.68 -6.74,0 -12.81,1.5 -18.21,4.43 -5.45,2.98 -9.66,7.09 -12.75,12.34 -3.03,5.29 -4.58,11.36 -4.58,18.15l0 95.22 -46.53 0z"/>
    <path id="2" class="fil2" d="M1517.36 2788.35c-16.97,0 -31.62,-3.6 -44.06,-10.9 -12.4,-7.31 -21.91,-17.43 -28.59,-30.44 -6.69,-13.01 -10.03,-28.12 -10.03,-45.4 0,-17.48 3.34,-32.7 10.03,-45.7 6.68,-13.01 16.19,-23.14 28.59,-30.44 12.44,-7.3 27.09,-10.91 44.06,-10.91 17.07,0 31.82,3.61 44.21,10.91 12.4,7.3 21.96,17.43 28.64,30.44 6.69,13 10.02,28.22 10.02,45.7 0,17.28 -3.33,32.39 -10.02,45.4 -6.68,13.01 -16.24,23.13 -28.64,30.44 -12.39,7.3 -27.14,10.9 -44.21,10.9zm0.31 -36.45c7.7,0 14.19,-2.16 19.43,-6.53 5.25,-4.37 9.15,-10.39 11.83,-18 2.67,-7.66 4,-16.3 4,-26.07 0,-9.82 -1.33,-18.51 -4,-26.07 -2.68,-7.5 -6.58,-13.42 -11.83,-17.74 -5.24,-4.31 -11.73,-6.47 -19.43,-6.47 -7.82,0 -14.4,2.16 -19.65,6.47 -5.29,4.32 -9.25,10.24 -11.92,17.74 -2.63,7.56 -3.97,16.25 -3.97,26.07 0,9.77 1.34,18.41 3.97,26.07 2.67,7.61 6.63,13.63 11.92,18 5.25,4.37 11.83,6.53 19.65,6.53z"/>
    <path id="3" class="fil2" d="M1620.85 2616.68l46.54 0 0 176.81c0,12.95 -2.57,23.45 -7.71,31.41 -5.1,7.97 -12.45,13.84 -21.96,17.54 -9.56,3.7 -20.93,5.6 -34.04,5.6l-9.51 0 0 -36.45 6.02 0c7.66,0 12.96,-1.59 15.99,-4.68 2.98,-3.14 4.58,-7.87 4.67,-14.19l0 -176.04zm22.94 -21.55c-6.89,0 -12.86,-2.31 -17.74,-6.94 -4.94,-4.63 -7.4,-10.18 -7.4,-16.71 0,-6.53 2.46,-12.08 7.4,-16.66 4.88,-4.57 10.85,-6.84 17.74,-6.84 7.04,0 13.01,2.27 17.94,6.84 4.94,4.58 7.41,10.13 7.41,16.66 0,6.53 -2.47,12.08 -7.41,16.71 -4.93,4.63 -10.9,6.94 -17.94,6.94z"/>
    <path id="4" class="fil2" d="M1771.45 2788.35c-17.27,0 -32.18,-3.5 -44.73,-10.54 -12.54,-6.99 -22.16,-17.02 -28.84,-30.03 -6.69,-13.01 -10.03,-28.38 -10.03,-46.17 0,-17.27 3.34,-32.44 10.03,-45.5 6.68,-13.06 16.09,-23.24 28.28,-30.59 12.23,-7.3 26.58,-10.96 43.03,-10.96 11.16,0 21.54,1.75 31.16,5.36 9.67,3.54 18.1,8.83 25.35,15.94 7.2,7.09 12.85,15.98 16.86,26.68 4.01,10.69 6.02,23.18 6.02,37.58l0 12.65 -142.22 0 0 -28.79 119.59 0 -21.64 7.56c0,-8.54 -1.34,-16 -3.96,-22.32 -2.57,-6.32 -6.48,-11.21 -11.68,-14.7 -5.13,-3.45 -11.56,-5.2 -19.17,-5.2 -7.66,0 -14.09,1.8 -19.38,5.29 -5.25,3.5 -9.31,8.29 -12.13,14.3 -2.79,6.01 -4.23,12.96 -4.23,20.82l0 20.31c0,9.16 1.65,16.97 4.84,23.45 3.24,6.47 7.71,11.41 13.47,14.91 5.81,3.44 12.44,5.19 20,5.19 5.19,0 9.92,-0.77 14.14,-2.26 4.21,-1.55 7.87,-3.75 10.9,-6.63 3.08,-2.93 5.35,-6.43 6.89,-10.55l43.09 2.83c-2.12,10.39 -6.54,19.39 -13.22,27.05 -6.68,7.71 -15.27,13.67 -25.81,17.94 -10.54,4.27 -22.77,6.38 -36.61,6.38z"/>
    <path id="5" class="fil2" d="M1944.21 2788.35c-17.17,0 -31.93,-3.65 -44.27,-11.06 -12.34,-7.35 -21.85,-17.58 -28.48,-30.58 -6.63,-13.01 -9.93,-28.03 -9.93,-45.1 0,-17.27 3.35,-32.44 10.03,-45.5 6.69,-13.06 16.2,-23.24 28.54,-30.59 12.34,-7.3 27.04,-10.96 44.11,-10.96 14.66,0 27.51,2.63 38.51,7.98 11.01,5.29 19.7,12.8 26.12,22.41 6.43,9.66 9.92,21.03 10.54,34.04l-43.96 0c-0.82,-5.61 -2.52,-10.54 -5.14,-14.76 -2.62,-4.21 -6.07,-7.45 -10.39,-9.76 -4.32,-2.32 -9.35,-3.45 -15.06,-3.45 -7.25,0 -13.52,1.9 -18.92,5.76 -5.35,3.9 -9.52,9.56 -12.5,17.01 -2.93,7.51 -4.42,16.56 -4.42,27.2 0,10.65 1.49,19.8 4.42,27.41 2.98,7.66 7.15,13.47 12.5,17.48 5.4,4.01 11.67,6.02 18.92,6.02 8.02,0 14.8,-2.52 20.3,-7.56 5.56,-5.09 8.95,-12.08 10.29,-21.03l43.96 0c-0.67,12.85 -4.16,24.16 -10.39,33.93 -6.22,9.82 -14.81,17.43 -25.75,22.93 -10.96,5.46 -23.97,8.18 -39.03,8.18z"/>
    <path id="6" class="fil2" d="M2128.89 2616.68l0 35.21 -101.39 0 0 -35.21 101.39 0zm-78.36 -40.11l46.59 0 0 156.66c0,5.66 1.23,9.77 3.75,12.44 2.52,2.67 6.53,3.97 12.03,3.97 1.85,0 3.86,-0.11 6.06,-0.42 2.22,-0.31 4.12,-0.67 5.71,-1.08l7.35 34.96c-5.08,1.49 -10.02,2.63 -14.8,3.29 -4.78,0.73 -9.46,1.08 -14.09,1.08 -16.76,0 -29.72,-4.21 -38.87,-12.59 -9.15,-8.38 -13.73,-20.21 -13.73,-35.48l0 -162.83z"/>
    <path id="7" class="fil2" d="M2286.73 2664.69l-42.62 2.58c-1.08,-5.35 -4.06,-9.92 -8.9,-13.78 -4.78,-3.86 -11.26,-5.81 -19.43,-5.81 -7.2,0 -13.27,1.49 -18.15,4.52 -4.83,3.03 -7.31,7.04 -7.31,12.03 0,4.01 1.6,7.46 4.79,10.34 3.14,2.88 8.58,5.09 16.35,6.68l30.54 6.07c16.4,3.29 28.59,8.69 36.6,16.09 8.03,7.45 12.09,17.23 12.09,29.36 0,11.16 -3.24,20.87 -9.67,29.15 -6.42,8.28 -15.27,14.76 -26.53,19.44 -11.2,4.67 -24.11,6.99 -38.71,6.99 -22.27,0 -40,-4.63 -53.21,-13.99 -13.22,-9.35 -20.93,-22 -23.14,-37.94l45.65 -2.42c1.49,6.84 4.94,11.98 10.23,15.53 5.35,3.49 12.14,5.24 20.47,5.24 8.17,0 14.76,-1.59 19.84,-4.83 5.04,-3.18 7.62,-7.25 7.62,-12.18 0,-8.33 -7.25,-13.94 -21.7,-16.86l-29.1 -6.02c-16.36,-3.35 -28.54,-9 -36.56,-17.03 -8.07,-8.06 -12.08,-18.35 -12.08,-30.89 0,-10.85 2.98,-20.16 8.9,-28.03 5.9,-7.81 14.24,-13.82 24.93,-18.04 10.69,-4.21 23.18,-6.33 37.58,-6.33 21.28,0 38.05,4.48 50.23,13.48 12.19,9 19.29,21.18 21.29,36.65z"/>
    <polygon class="fil2" points="1194.13,3269.32 1194.13,3609.3 1122.47,3609.3 1122.47,3337.55 1120.44,3337.55 1042.86,3386.62 1042.86,3322.67 1126.83,3269.32 "/>
    <path id="1" class="fil2" d="M1369.14 3613.89c-28.89,0 -53.59,-6.93 -74.06,-20.71 -20.49,-13.71 -36.15,-33.57 -46.97,-59.51 -10.91,-25.94 -16.36,-57.32 -16.36,-94.17 0,-36.6 5.45,-67.99 16.43,-94.09 10.99,-26.09 26.64,-46.1 47.12,-59.89 20.49,-13.87 45.1,-20.8 73.84,-20.8 28.9,0 53.59,6.93 74.07,20.8 20.42,13.79 36.07,33.73 46.97,59.74 10.91,26.01 16.28,57.48 16.28,94.24 0,36.85 -5.37,68.23 -16.2,94.17 -10.75,25.94 -26.4,45.8 -46.89,59.51 -20.41,13.78 -45.18,20.71 -74.23,20.71zm0 -59.35c13.87,0 25.55,-4.43 35.06,-13.4 9.5,-8.87 16.66,-21.88 21.65,-39.09 4.9,-17.21 7.4,-38.01 7.4,-62.55 0,-24.61 -2.5,-45.56 -7.4,-62.7 -4.99,-17.21 -12.15,-30.37 -21.65,-39.41 -9.51,-9.03 -21.19,-13.55 -35.06,-13.55 -20.56,0 -36.37,10.05 -47.51,30.22 -11.06,20.17 -16.59,48.68 -16.59,85.44 0,24.54 2.42,45.34 7.4,62.55 4.91,17.21 12.23,30.22 21.81,39.09 9.58,8.97 21.19,13.4 34.89,13.4z"/>
    <path id="2" class="fil2" d="M1666.52 3613.89c-23.44,0 -44.39,-4.35 -62.77,-12.92 -18.38,-8.57 -32.95,-20.49 -43.7,-35.68 -10.75,-15.26 -16.36,-32.55 -16.74,-52.03l69.78 0c0.62,13.09 6.08,23.68 16.36,31.78 10.2,8.18 22.59,12.23 37.07,12.23 11.22,0 21.19,-2.49 29.75,-7.55 8.58,-4.99 15.35,-12 20.18,-20.87 4.91,-8.89 7.32,-19.24 7.32,-31.17 0,-11.83 -2.49,-22.35 -7.56,-31.46 -4.98,-9.11 -11.91,-16.2 -20.64,-21.34 -8.72,-5.07 -18.84,-7.64 -30.21,-7.64 -10.05,0 -19.71,2.03 -28.98,6.16 -9.27,4.13 -16.51,9.66 -21.65,16.67l-64.18 -11.45 15.97 -179.3 207.88 0 0 58.88 -148.53 0 -8.41 85.06 1.78 0c5.93,-8.34 14.96,-15.27 27.03,-20.73 12.15,-5.53 25.63,-8.25 40.5,-8.25 20.41,0 38.64,4.83 54.69,14.41 16.04,9.58 28.74,22.75 38,39.49 9.27,16.74 13.87,35.98 13.87,57.72 0,22.97 -5.3,43.3 -15.97,61.06 -10.6,17.68 -25.47,31.63 -44.55,41.75 -19.08,10.13 -41.21,15.18 -66.29,15.18z"/>
    <path id="3" class="fil2" d="M1960.63 3613.89c-17.29,0 -34.12,-2.95 -50.39,-8.72 -16.28,-5.76 -30.85,-15.11 -43.62,-28.03 -12.77,-12.94 -22.9,-30.07 -30.45,-51.49 -7.56,-21.34 -11.3,-47.59 -11.3,-78.59 0,-28.58 3.27,-54.14 9.74,-76.64 6.47,-22.51 15.73,-41.67 27.8,-57.4 12.08,-15.74 26.65,-27.73 43.7,-35.99 17.06,-8.18 36.06,-12.31 57.1,-12.31 22.66,0 42.6,4.44 59.96,13.24 17.38,8.8 31.32,20.8 41.91,35.83 10.52,15.03 16.9,31.86 19.01,50.39l-70.49 0c-2.73,-11.84 -8.57,-21.1 -17.61,-27.8 -8.95,-6.7 -19.86,-10.05 -32.78,-10.05 -22.28,0 -39.11,9.66 -50.56,28.9 -11.52,19.24 -17.29,45.33 -17.29,78.35l2.34 0c5.14,-10.05 12.07,-18.61 20.64,-25.78 8.57,-7.16 18.46,-12.62 29.52,-16.43 11.14,-3.82 22.82,-5.69 35.12,-5.69 20.25,0 38.25,4.68 53.99,14.18 15.73,9.42 28.19,22.35 37.23,38.87 9.03,16.5 13.55,35.43 13.55,56.69 0,22.99 -5.37,43.39 -16.05,61.31 -10.75,17.84 -25.62,31.86 -44.63,41.98 -19,10.13 -41.13,15.18 -66.44,15.18zm-0.38 -56.62c11.05,0 20.95,-2.64 29.59,-7.86 8.72,-5.22 15.58,-12.47 20.64,-21.58 5.14,-9.11 7.71,-19.32 7.71,-30.61 0,-11.22 -2.57,-21.34 -7.55,-30.3 -4.99,-8.95 -11.84,-16.12 -20.41,-21.34 -8.65,-5.22 -18.46,-7.87 -29.6,-7.87 -10.9,0 -20.8,2.73 -29.67,8.1 -8.8,5.38 -15.73,12.62 -20.88,21.66 -5.06,9.03 -7.63,19.08 -7.63,29.98 0,10.98 2.49,21.03 7.56,30.15 4.98,9.11 11.91,16.35 20.64,21.65 8.72,5.38 18.61,8.02 29.6,8.02z"/>
    <path id="4" class="fil2" d="M2118.28 3549.48l0 -56.31 141.76 -223.85 48.83 0 0 78.51 -28.97 0 -89.49 141.44 0 2.73 201.96 0 0 57.48 -274.09 0zm162.95 59.82l0 -76.87 1.4 -25.4 0 -237.71 67.53 0 0 339.98 -68.93 0z"/>
    <path class="fil2" d="M1665.11 2029.02l172.11 -172.09 -36.57 -36.68 -135.54 134.29 -53.75 -53.76 -36.57 36.68 90.32 91.56zm244.2 -181.89c16.67,1.25 32.29,5.52 46.98,12.82 14.69,7.29 27.51,16.77 38.44,28.33 11.04,11.67 19.79,25.01 26.25,40.01 6.15,15.1 9.17,31.14 9.17,48.23 0,18.34 -3.44,35.42 -10.42,51.25 -6.87,15.94 -16.24,29.7 -28.02,41.57 -11.77,11.77 -25.62,20.94 -41.56,27.4 -15.84,6.98 -32.72,10.42 -50.63,10.42l-338.16 0c-21.57,0 -41.88,-4.07 -61.05,-12.19 -19.07,-8.13 -35.74,-19.28 -49.69,-33.34 -14.07,-13.96 -25.21,-30.63 -33.34,-49.69 -8.13,-18.75 -12.19,-39.07 -12.19,-61.05 0,-19.89 3.65,-38.86 10.94,-56.78 6.98,-17.91 16.77,-33.75 29.38,-47.61 12.6,-13.85 27.19,-25.2 43.96,-34.16 17.08,-8.55 35.32,-14.07 54.9,-16.47 8.12,-15.52 18.34,-29.79 30.52,-42.81 11.78,-13.02 25.11,-24.17 40.01,-33.55 14.79,-9.37 31.04,-16.67 48.55,-21.97 17.08,-5.32 35.1,-7.92 54.27,-7.92 23.65,0 46.15,4.06 67.72,12.18 21.24,7.81 40.21,18.65 57.09,32.72 16.87,14.06 31.04,30.83 42.4,50.32 11.87,19.16 19.99,39.89 24.48,62.29z"/>
   </g>
   <g>
    <rect class="fil3 str0" x="3963.91" y="6.51" width="3422.21" height="3273.75" rx="328.16" ry="328.16"/>
    <path class="fil4" d="M4999.45 1795.84c-19.85,0 -37.69,-4.52 -53.47,-13.57 -15.74,-9.05 -28.18,-22.16 -37.33,-39.33 -9.15,-17.17 -13.72,-37.9 -13.72,-62.21 0,-24.48 4.57,-45.35 13.77,-62.58 9.21,-17.22 21.7,-30.33 37.54,-39.33 15.78,-8.94 33.57,-13.47 53.21,-13.47 13.06,0 25.2,1.85 36.3,5.5 11.15,3.65 21.03,9 29.62,15.99 8.58,6.94 15.58,15.48 21.02,25.6 5.4,10.08 8.9,21.6 10.39,34.56l-47.92 0c-0.87,-6.12 -2.67,-11.62 -5.34,-16.56 -2.63,-4.94 -6.12,-9.1 -10.39,-12.5 -4.27,-3.44 -9.16,-6.06 -14.6,-7.91 -5.45,-1.85 -11.47,-2.78 -18,-2.78 -11.47,0 -21.55,2.88 -30.23,8.64 -8.64,5.76 -15.38,14.14 -20.16,24.99 -4.78,10.9 -7.15,24.22 -7.15,39.85 0,15.99 2.43,29.4 7.2,40.31 4.84,10.89 11.57,19.12 20.21,24.62 8.64,5.5 18.62,8.28 29.98,8.28 6.32,0 12.18,-0.87 17.63,-2.57 5.4,-1.7 10.23,-4.16 14.45,-7.35 4.21,-3.24 7.76,-7.15 10.59,-11.83 2.88,-4.68 4.84,-10.03 5.81,-16.04l47.92 0c-1.23,10.33 -4.27,20.26 -9.1,29.82 -4.89,9.51 -11.47,18.05 -19.85,25.5 -8.32,7.51 -18.2,13.42 -29.67,17.79 -11.41,4.37 -24.32,6.58 -38.71,6.58z"/>
    <path id="1" class="fil4" d="M5195.86 1796.1c-16.97,0 -31.62,-3.6 -44.06,-10.9 -12.4,-7.3 -21.91,-17.43 -28.6,-30.44 -6.68,-13.01 -10.02,-28.12 -10.02,-45.4 0,-17.48 3.34,-32.69 10.02,-45.7 6.69,-13.01 16.2,-23.14 28.6,-30.44 12.44,-7.3 27.09,-10.9 44.06,-10.9 17.06,0 31.82,3.6 44.21,10.9 12.39,7.3 21.96,17.43 28.64,30.44 6.69,13.01 10.02,28.22 10.02,45.7 0,17.28 -3.33,32.39 -10.02,45.4 -6.68,13.01 -16.25,23.14 -28.64,30.44 -12.39,7.3 -27.15,10.9 -44.21,10.9zm0.31 -36.45c7.7,0 14.18,-2.16 19.43,-6.53 5.25,-4.37 9.15,-10.39 11.82,-18 2.68,-7.66 4.01,-16.3 4.01,-26.07 0,-9.82 -1.33,-18.5 -4.01,-26.06 -2.67,-7.51 -6.57,-13.43 -11.82,-17.74 -5.25,-4.32 -11.73,-6.48 -19.43,-6.48 -7.82,0 -14.4,2.16 -19.65,6.48 -5.29,4.31 -9.25,10.23 -11.92,17.74 -2.63,7.56 -3.97,16.24 -3.97,26.06 0,9.77 1.34,18.41 3.97,26.07 2.67,7.61 6.63,13.63 11.92,18 5.25,4.37 11.83,6.53 19.65,6.53z"/>
    <path id="2" class="fil4" d="M5345.88 1695.48l0 97.33 -46.53 0 0 -168.38 45.77 0 0 29.97 1.69 0c3.81,-9.97 9.87,-17.79 18.2,-23.5 8.33,-5.76 18.77,-8.58 31.31,-8.58 11.67,0 21.85,2.52 30.54,7.66 8.69,5.14 15.43,12.39 20.26,21.85 4.79,9.41 7.2,20.72 7.2,33.88l0 107.1 -46.53 0 0 -98.82c0,-10.23 -2.68,-18.31 -7.97,-24.17 -5.35,-5.86 -12.65,-8.84 -22.01,-8.84 -6.22,0 -11.72,1.39 -16.55,4.17 -4.83,2.78 -8.59,6.68 -11.32,11.82 -2.72,5.14 -4.06,11.32 -4.06,18.51z"/>
    <path id="3" class="fil4" d="M5621.52 1672.44l-42.63 2.58c-1.07,-5.35 -4.06,-9.92 -8.89,-13.78 -4.78,-3.86 -11.26,-5.81 -19.43,-5.81 -7.2,0 -13.27,1.49 -18.16,4.52 -4.83,3.04 -7.3,7.04 -7.3,12.04 0,4 1.6,7.45 4.78,10.33 3.14,2.88 8.59,5.09 16.36,6.68l30.54 6.07c16.4,3.29 28.58,8.69 36.6,16.09 8.03,7.45 12.09,17.23 12.09,29.36 0,11.16 -3.24,20.88 -9.67,29.15 -6.43,8.28 -15.27,14.76 -26.53,19.44 -11.21,4.67 -24.11,6.99 -38.71,6.99 -22.27,0 -40,-4.63 -53.22,-13.99 -13.21,-9.35 -20.93,-22 -23.13,-37.94l45.65 -2.42c1.49,6.84 4.94,11.98 10.23,15.53 5.35,3.5 12.14,5.25 20.47,5.25 8.17,0 14.75,-1.6 19.84,-4.84 5.04,-3.18 7.61,-7.25 7.61,-12.18 0,-8.33 -7.25,-13.94 -21.7,-16.86l-29.1 -6.02c-16.35,-3.34 -28.53,-9 -36.56,-17.02 -8.07,-8.07 -12.07,-18.36 -12.07,-30.9 0,-10.85 2.98,-20.15 8.89,-28.02 5.91,-7.82 14.24,-13.83 24.93,-18.05 10.7,-4.21 23.19,-6.32 37.59,-6.32 21.28,0 38.05,4.47 50.23,13.47 12.19,9 19.28,21.18 21.29,36.65z"/>
    <path id="4" class="fil4" d="M5752.73 1721.24l0 -96.81 46.58 0 0 168.38 -44.79 0 0 -30.59 -1.79 0c-3.81,9.76 -10.08,17.63 -18.82,23.75 -8.74,6.07 -19.44,9.05 -32.08,8.95 -11.26,0 -21.18,-2.52 -29.77,-7.61 -8.58,-5.1 -15.22,-12.34 -20,-21.75 -4.78,-9.46 -7.15,-20.77 -7.15,-33.94l0 -107.19 46.53 0 0 99.07c0,9.87 2.67,17.69 7.97,23.45 5.35,5.76 12.39,8.58 21.24,8.48 5.65,0 10.84,-1.23 15.68,-3.8 4.83,-2.58 8.74,-6.43 11.82,-11.52 3.09,-5.14 4.58,-11.42 4.58,-18.87z"/>
    <polygon id="5" class="fil4" points="5873.24,1568.39 5873.24,1792.81 5826.71,1792.81 5826.71,1568.39 "/>
    <path id="6" class="fil4" d="M5989.96 1624.43l0 35.21 -101.39 0 0 -35.21 101.39 0zm-78.36 -40.11l46.59 0 0 156.66c0,5.66 1.23,9.77 3.75,12.44 2.52,2.68 6.52,3.97 12.03,3.97 1.85,0 3.86,-0.11 6.06,-0.42 2.22,-0.31 4.12,-0.67 5.71,-1.07l7.35 34.95c-5.08,1.49 -10.02,2.63 -14.8,3.3 -4.78,0.72 -9.46,1.07 -14.09,1.07 -16.76,0 -29.72,-4.21 -38.87,-12.59 -9.15,-8.38 -13.73,-20.21 -13.73,-35.48l0 -162.83z"/>
    <path id="7" class="fil4" d="M6058.19 1796c-10.64,-0.05 -20.21,-1.91 -28.69,-5.66 -8.49,-3.81 -15.12,-9.41 -19.95,-16.81 -4.84,-7.45 -7.25,-16.66 -7.25,-27.71 0,-9.47 1.75,-17.33 5.14,-23.6 3.39,-6.28 8.07,-11.37 13.99,-15.27 5.96,-3.91 12.7,-6.9 20.2,-8.9 7.56,-2 15.53,-3.39 23.96,-4.21 9.72,-0.88 17.59,-1.8 23.5,-2.73 5.91,-0.87 10.28,-2.26 13.01,-4.12 2.77,-1.84 4.16,-4.51 4.16,-8.06l0 -0.72c0,-6.95 -2.21,-12.34 -6.58,-16.15 -4.37,-3.81 -10.49,-5.7 -18.41,-5.7 -8.38,0 -15.01,1.79 -20,5.5 -4.93,3.64 -8.22,8.27 -9.87,13.93l-43.19 -3.49c2.21,-10.24 6.53,-19.08 12.96,-26.59 6.42,-7.46 14.71,-13.27 24.89,-17.33 10.23,-4.06 22.05,-6.06 35.47,-6.06 9.36,0 18.3,1.08 26.83,3.29 8.55,2.21 16.15,5.6 22.84,10.18 6.68,4.58 11.97,10.44 15.89,17.69 3.9,7.25 5.86,15.83 5.86,25.76l0 113.57 -44.43 0 0 -23.5 -1.23 0c-2.68,5.3 -6.32,9.97 -10.85,13.94 -4.47,3.96 -9.92,7.09 -16.25,9.35 -6.32,2.27 -13.68,3.35 -22,3.4zm13.42 -32.24c6.83,0 12.9,-1.39 18.14,-4.17 5.3,-2.77 9.42,-6.47 12.35,-11.15 2.98,-4.68 4.47,-9.92 4.47,-15.73l0 -17.95c-1.44,0.93 -3.4,1.8 -5.96,2.57 -2.57,0.83 -5.4,1.54 -8.54,2.11 -3.08,0.61 -6.22,1.13 -9.31,1.6 -3.14,0.45 -5.91,0.87 -8.43,1.28 -5.55,0.82 -10.33,2.05 -14.5,3.85 -4.11,1.75 -7.3,4.12 -9.56,7.05 -2.21,2.98 -3.34,6.69 -3.34,11.11 0,6.32 2.26,11.1 6.88,14.45 4.63,3.28 10.55,4.98 17.8,4.98z"/>
    <path id="8" class="fil4" d="M6226.77 1695.48l0 97.33 -46.53 0 0 -168.38 45.77 0 0 29.97 1.69 0c3.81,-9.97 9.87,-17.79 18.2,-23.5 8.33,-5.76 18.77,-8.58 31.31,-8.58 11.67,0 21.85,2.52 30.54,7.66 8.69,5.14 15.43,12.39 20.26,21.85 4.79,9.41 7.2,20.72 7.2,33.88l0 107.1 -46.53 0 0 -98.82c0,-10.23 -2.68,-18.31 -7.97,-24.17 -5.35,-5.86 -12.65,-8.84 -22.01,-8.84 -6.22,0 -11.72,1.39 -16.55,4.17 -4.83,2.78 -8.59,6.68 -11.32,11.82 -2.72,5.14 -4.06,11.32 -4.06,18.51z"/>
    <path id="9" class="fil4" d="M6451.97 1624.43l0 35.21 -101.39 0 0 -35.21 101.39 0zm-78.36 -40.11l46.59 0 0 156.66c0,5.66 1.23,9.77 3.75,12.44 2.52,2.68 6.52,3.97 12.03,3.97 1.85,0 3.86,-0.11 6.06,-0.42 2.22,-0.31 4.12,-0.67 5.71,-1.07l7.35 34.95c-5.08,1.49 -10.02,2.63 -14.8,3.3 -4.78,0.72 -9.46,1.07 -14.09,1.07 -16.76,0 -29.72,-4.21 -38.87,-12.59 -9.15,-8.38 -13.73,-20.21 -13.73,-35.48l0 -162.83z"/>
    <polygon class="fil4" points="5322.45,2277.07 5322.45,2617.05 5250.8,2617.05 5250.8,2345.3 5248.77,2345.3 5171.19,2394.37 5171.19,2330.42 5255.15,2277.07 "/>
    <path id="1" class="fil4" d="M5364.2 2617.05l0 -51.56 120.96 -112.32c10.29,-9.89 19.01,-18.77 26.02,-26.79 6.93,-7.94 12.31,-15.81 15.97,-23.52 3.65,-7.63 5.45,-15.97 5.45,-24.93 0,-10.05 -2.26,-18.69 -6.85,-25.78 -4.6,-7.16 -10.75,-12.69 -18.47,-16.66 -7.79,-3.98 -16.66,-5.92 -26.71,-5.92 -10.36,0 -19.4,2.02 -27.19,6.23 -7.71,4.2 -13.7,10.2 -17.91,18.06 -4.13,7.79 -6.23,17.22 -6.23,28.12l-68.47 0c0,-22.35 5.07,-41.66 15.19,-58.02 10.13,-16.36 24.23,-29.05 42.45,-38.01 18.15,-8.96 39.11,-13.48 62.86,-13.48 24.14,0 45.33,4.29 63.4,12.93 18.15,8.57 32.17,20.41 42.22,35.6 10.05,15.11 15.11,32.55 15.11,52.34 0,12.77 -2.58,25.39 -7.56,37.77 -4.98,12.39 -13.94,26.25 -26.72,41.52 -12.77,15.26 -30.84,33.49 -54.28,54.68l-49.77 48.6 0 2.49 142.84 0 0 58.65 -242.31 0z"/>
    <path id="2" class="fil4" d="M5767.67 2621.64c-23.44,0 -44.4,-4.35 -62.78,-12.92 -18.38,-8.57 -32.95,-20.49 -43.7,-35.68 -10.74,-15.26 -16.36,-32.55 -16.74,-52.03l69.79 0c0.62,13.09 6.07,23.69 16.35,31.78 10.2,8.18 22.59,12.23 37.08,12.23 11.21,0 21.18,-2.49 29.75,-7.55 8.57,-4.99 15.35,-12 20.17,-20.87 4.91,-8.88 7.33,-19.24 7.33,-31.17 0,-11.83 -2.5,-22.35 -7.56,-31.46 -4.99,-9.11 -11.92,-16.2 -20.64,-21.34 -8.72,-5.07 -18.85,-7.64 -30.22,-7.64 -10.05,0 -19.7,2.03 -28.98,6.16 -9.26,4.13 -16.5,9.66 -21.65,16.67l-64.18 -11.45 15.97 -179.3 207.88 0 0 58.88 -148.53 0 -8.41 85.06 1.79 0c5.92,-8.34 14.95,-15.27 27.03,-20.73 12.15,-5.52 25.62,-8.25 40.5,-8.25 20.4,0 38.63,4.83 54.68,14.41 16.04,9.58 28.74,22.75 38,39.49 9.28,16.74 13.87,35.98 13.87,57.72 0,22.97 -5.29,43.3 -15.97,61.06 -10.59,17.68 -25.47,31.63 -44.55,41.75 -19.08,10.13 -41.21,15.18 -66.28,15.18z"/>
    <path id="3" class="fil4" d="M6031.71 2598.82l0 -235.29 59.28 0 0 235.29 -59.28 0zm-87.86 -87.86l0 -59.58 235 0 0 59.58 -235 0z"/>
    <path class="fil5" d="M5547.09 906.13c-18.24,0.42 -35.42,4.48 -51.26,12.19 -15.83,7.71 -29.69,18.54 -41.46,32.3l-46.46 0c-17.5,0 -33.13,-4.38 -46.99,-13.13 -13.85,-8.75 -20.73,-22.82 -20.73,-42.4 0,-6.88 0.21,-17.29 0.63,-31.15 0.41,-13.44 1.87,-26.88 4.58,-40.52 2.6,-13.65 6.77,-25.53 12.5,-35.74 6.15,-10.21 14.69,-15.21 25.63,-15.21 3.64,0 13.85,4.8 30.52,14.59 16.67,9.79 36.67,14.69 59.8,14.69 8.12,0 16.15,-0.63 23.86,-1.88 7.7,-1.25 15.2,-3.23 22.6,-6.04 -0.41,4.06 -0.73,7.92 -0.94,11.57 -0.2,3.64 -0.31,7.5 -0.31,11.56 0,15.94 2.4,31.45 7.3,46.67 4.89,15.31 11.77,29.48 20.73,42.5zm373.57 222.11c0,28.54 -8.54,50.73 -25.62,66.56 -17.09,15.94 -39.69,23.87 -67.72,23.87l-304.61 0c-28.13,0 -50.63,-7.93 -67.71,-23.87 -17.09,-15.83 -25.74,-38.02 -25.74,-66.56 0,-19.49 1.67,-41.05 4.9,-64.7 2.91,-23.13 8.64,-44.69 17.4,-64.69 8.75,-19.9 20.94,-36.57 36.36,-50 15.83,-13.45 36.67,-20.11 62.29,-20.11 6.05,0 19.69,8.02 40.84,24.06 21.15,16.05 49.27,24.07 84.28,24.07 34.59,0 62.5,-8.02 83.86,-24.07 21.46,-16.04 34.9,-24.06 40.63,-24.06 25.63,0 46.36,6.66 62.3,20.11 15.41,13.43 27.5,30.1 36.25,50 8.75,20 14.79,41.56 18.03,64.69 2.91,23.65 4.26,45.21 4.26,64.7zm-357.01 -445.57c0,24.8 -8.75,46.05 -26.25,63.55 -17.5,17.5 -38.65,26.25 -63.55,26.25 -24.37,0 -45.32,-8.75 -62.81,-26.25 -17.51,-17.5 -26.26,-38.75 -26.26,-63.55 0,-24.37 8.75,-45.32 26.26,-62.81 17.49,-17.51 38.44,-26.26 62.81,-26.26 24.9,0 46.05,8.75 63.55,26.26 17.5,17.49 26.25,38.44 26.25,62.81zm245.34 134.29c0,18.33 -3.44,35.63 -10.42,51.87 -7.29,16.36 -16.98,30.53 -28.96,42.72 -11.98,12.29 -26.15,21.77 -42.4,28.75 -16.25,6.88 -33.55,10.32 -51.88,10.32 -18.75,0 -36.25,-3.44 -52.5,-10.32 -16.26,-6.98 -30.43,-16.46 -42.41,-28.75 -12.08,-12.19 -21.67,-26.36 -29.06,-42.72 -6.88,-16.24 -10.32,-33.54 -10.32,-51.87 0,-18.65 3.44,-36.16 10.32,-52.51 7.39,-16.25 16.98,-30.42 29.06,-42.4 11.98,-11.98 26.15,-21.46 42.41,-28.34 16.25,-7.39 33.75,-11.04 52.5,-11.04 18.33,0 35.63,3.65 51.88,11.04 16.25,6.88 30.42,16.36 42.4,28.34 11.98,11.98 21.67,26.15 28.96,42.4 6.98,16.35 10.42,33.86 10.42,52.51zm200.85 78.13c0,19.58 -6.98,33.65 -20.73,42.4 -13.85,8.75 -29.59,13.13 -47.09,13.13l-46.35 0c-11.78,-13.76 -25.64,-24.59 -41.47,-32.3 -15.94,-7.71 -33.03,-11.77 -51.36,-12.19 9.38,-13.02 16.56,-27.19 21.46,-42.5 4.8,-15.22 7.29,-30.73 7.29,-46.67 0,-4.06 -0.21,-7.92 -0.62,-11.56 -0.42,-3.65 -0.83,-7.51 -1.25,-11.57 7.39,2.81 14.89,4.79 22.6,6.04 7.72,1.25 15.63,1.88 23.86,1.88 23.55,0 43.54,-4.9 60.11,-14.69 16.46,-9.79 26.56,-14.59 30.21,-14.59 11.36,0 19.9,5 25.63,15.21 5.73,10.21 9.9,22.09 12.5,35.74 2.61,13.64 4.17,27.08 4.59,40.52 0.41,13.86 0.62,24.27 0.62,31.15zm-44.59 -212.42c0,24.8 -8.75,46.05 -26.25,63.55 -17.5,17.5 -38.44,26.25 -62.82,26.25 -24.9,0 -46.04,-8.75 -63.55,-26.25 -17.5,-17.5 -26.25,-38.75 -26.25,-63.55 0,-24.37 8.75,-45.32 26.25,-62.81 17.51,-17.51 38.65,-26.26 63.55,-26.26 24.38,0 45.32,8.75 62.82,26.26 17.5,17.49 26.25,38.44 26.25,62.81z"/>
   </g>
   <g>
    <rect class="fil3 str0" x="3963.91" y="3928.75" width="3422.21" height="3273.75" rx="328.16" ry="328.16"/>
    <path class="fil4" d="M5191.15 5715.05l-50.75 0 77.44 -224.42 61.13 0 77.28 224.42 -50.59 0 -56.35 -173.22 -1.81 0 -56.35 173.22zm-2.98 -88.28l120.06 0 0 37.07 -120.06 0 0 -37.07z"/>
    <polygon id="1" class="fil4" points="5384.27,5715.05 5338.51,5546.67 5385.82,5546.67 5411.83,5659.93 5413.37,5659.93 5440.62,5546.67 5486.84,5546.67 5514.45,5659.16 5515.94,5659.16 5541.55,5546.67 5588.7,5546.67 5542.89,5715.05 5493.63,5715.05 5464.74,5609.13 5462.62,5609.13 5433.68,5715.05 "/>
    <path id="2" class="fil4" d="M5651.32 5718.24c-10.64,-0.05 -20.21,-1.91 -28.69,-5.66 -8.49,-3.81 -15.11,-9.41 -19.95,-16.81 -4.84,-7.45 -7.25,-16.66 -7.25,-27.71 0,-9.46 1.75,-17.33 5.14,-23.6 3.39,-6.28 8.07,-11.36 13.99,-15.27 5.96,-3.91 12.7,-6.89 20.2,-8.9 7.56,-2 15.53,-3.39 23.96,-4.21 9.72,-0.88 17.59,-1.8 23.5,-2.72 5.91,-0.88 10.28,-2.27 13.01,-4.12 2.77,-1.85 4.16,-4.52 4.16,-8.07l0 -0.72c0,-6.95 -2.21,-12.34 -6.58,-16.15 -4.37,-3.8 -10.49,-5.7 -18.41,-5.7 -8.38,0 -15.01,1.79 -20,5.5 -4.93,3.64 -8.22,8.27 -9.87,13.93l-43.19 -3.49c2.21,-10.24 6.53,-19.08 12.96,-26.59 6.42,-7.45 14.71,-13.26 24.89,-17.32 10.23,-4.07 22.05,-6.07 35.47,-6.07 9.36,0 18.3,1.08 26.84,3.29 8.54,2.21 16.14,5.6 22.83,10.18 6.68,4.58 11.97,10.44 15.89,17.69 3.9,7.25 5.86,15.83 5.86,25.76l0 113.57 -44.43 0 0 -23.5 -1.23 0c-2.67,5.3 -6.32,9.98 -10.85,13.94 -4.47,3.96 -9.92,7.09 -16.25,9.35 -6.32,2.27 -13.68,3.35 -22,3.4zm13.42 -32.24c6.83,0 12.9,-1.39 18.14,-4.16 5.3,-2.78 9.42,-6.48 12.35,-11.16 2.98,-4.68 4.47,-9.92 4.47,-15.73l0 -17.95c-1.44,0.93 -3.39,1.8 -5.96,2.57 -2.57,0.83 -5.4,1.54 -8.54,2.11 -3.08,0.61 -6.22,1.13 -9.31,1.6 -3.13,0.45 -5.91,0.87 -8.43,1.28 -5.55,0.82 -10.33,2.05 -14.5,3.85 -4.11,1.75 -7.3,4.12 -9.56,7.05 -2.21,2.98 -3.34,6.69 -3.34,11.11 0,6.32 2.26,11.1 6.89,14.45 4.62,3.28 10.54,4.98 17.79,4.98z"/>
    <path id="3" class="fil4" d="M5773.37 5715.05l0 -168.38 45.04 0 0 29.51 1.81 0c3.08,-10.44 8.27,-18.36 15.47,-23.75 7.25,-5.35 15.52,-8.03 24.89,-8.03 2.41,0 4.93,0.11 7.61,0.36 2.67,0.26 5.03,0.68 7.14,1.29l0 41.29c-2.21,-0.72 -5.25,-1.29 -9.1,-1.75 -3.85,-0.47 -7.46,-0.67 -10.79,-0.67 -6.74,0 -12.81,1.49 -18.21,4.42 -5.45,2.98 -9.66,7.09 -12.75,12.34 -3.03,5.3 -4.58,11.36 -4.58,18.15l0 95.22 -46.53 0z"/>
    <path id="4" class="fil4" d="M5942.99 5717.77c-12.85,0 -24.47,-3.34 -34.8,-9.97 -10.34,-6.63 -18.51,-16.4 -24.53,-29.26 -6.07,-12.9 -9.05,-28.74 -9.05,-47.4 0,-19.28 3.09,-35.32 9.31,-48.17 6.27,-12.85 14.55,-22.47 24.89,-28.85 10.32,-6.37 21.64,-9.56 33.87,-9.56 9.47,0 17.33,1.54 23.66,4.73 6.32,3.14 11.46,7.09 15.37,11.83 3.9,4.73 6.89,9.35 8.9,13.98l1.33 0 0 -84.47 46.69 0 0 224.42 -45.92 0 0 -26.94 -2.1 0c-2.12,4.58 -5.2,9.2 -9.21,13.78 -4.01,4.52 -9.15,8.32 -15.42,11.36 -6.28,2.98 -13.93,4.52 -22.99,4.52zm14.61 -37.06c7.55,0 13.93,-2.12 19.22,-6.28 5.25,-4.16 9.26,-9.92 12.04,-17.38 2.77,-7.4 4.16,-16.09 4.16,-26.07 0,-10.02 -1.39,-18.76 -4.11,-26.11 -2.68,-7.4 -6.68,-13.11 -12.04,-17.18 -5.29,-4.06 -11.72,-6.11 -19.27,-6.11 -7.61,0 -14.04,2.1 -19.29,6.32 -5.19,4.22 -9.2,10.03 -11.87,17.43 -2.73,7.35 -4.06,15.94 -4.06,25.65 0,9.78 1.33,18.37 4.06,25.87 2.67,7.45 6.68,13.31 11.98,17.53 5.24,4.21 11.67,6.33 19.18,6.33z"/>
    <path id="5" class="fil4" d="M6205.67 5594.68l-42.62 2.58c-1.08,-5.35 -4.06,-9.92 -8.9,-13.78 -4.78,-3.86 -11.26,-5.81 -19.43,-5.81 -7.2,0 -13.27,1.49 -18.15,4.52 -4.83,3.04 -7.3,7.05 -7.3,12.04 0,4.01 1.59,7.45 4.78,10.33 3.14,2.88 8.59,5.09 16.35,6.68l30.54 6.07c16.4,3.29 28.59,8.69 36.61,16.1 8.02,7.45 12.08,17.22 12.08,29.35 0,11.16 -3.24,20.88 -9.67,29.15 -6.42,8.28 -15.27,14.76 -26.53,19.44 -11.2,4.67 -24.11,6.99 -38.71,6.99 -22.27,0 -40,-4.63 -53.21,-13.99 -13.22,-9.35 -20.93,-22 -23.14,-37.94l45.65 -2.42c1.49,6.85 4.94,11.98 10.24,15.54 5.34,3.49 12.13,5.24 20.46,5.24 8.17,0 14.76,-1.6 19.84,-4.84 5.04,-3.18 7.62,-7.25 7.62,-12.18 0,-8.33 -7.25,-13.94 -21.7,-16.86l-29.1 -6.02c-16.36,-3.34 -28.54,-9 -36.56,-17.02 -8.07,-8.07 -12.08,-18.36 -12.08,-30.9 0,-10.85 2.98,-20.15 8.9,-28.02 5.9,-7.81 14.24,-13.83 24.93,-18.05 10.69,-4.21 23.19,-6.32 37.58,-6.32 21.29,0 38.05,4.47 50.23,13.47 12.19,9 19.29,21.18 21.29,36.65z"/>
    <path class="fil4" d="M5091.16 6479.47l0 -56.31 141.76 -223.85 48.83 0 0 78.51 -28.97 0 -89.5 141.45 0 2.72 201.97 0 0 57.48 -274.09 0zm162.94 59.82l0 -76.87 1.41 -25.4 0 -237.71 67.52 0 0 339.98 -68.93 0z"/>
    <path id="1" class="fil4" d="M5530.92 6543.89c-28.89,0 -53.59,-6.94 -74.07,-20.72 -20.49,-13.71 -36.14,-33.57 -46.97,-59.5 -10.9,-25.95 -16.36,-57.33 -16.36,-94.18 0,-36.6 5.46,-67.99 16.44,-94.09 10.98,-26.09 26.64,-46.1 47.12,-59.89 20.49,-13.87 45.1,-20.8 73.84,-20.8 28.9,0 53.59,6.93 74.07,20.8 20.41,13.79 36.06,33.73 46.97,59.74 10.9,26.01 16.28,57.49 16.28,94.24 0,36.85 -5.38,68.23 -16.2,94.18 -10.75,25.93 -26.41,45.79 -46.89,59.5 -20.41,13.78 -45.18,20.72 -74.23,20.72zm0 -59.35c13.87,0 25.54,-4.44 35.05,-13.4 9.5,-8.88 16.67,-21.88 21.66,-39.1 4.9,-17.21 7.39,-38.01 7.39,-62.55 0,-24.61 -2.49,-45.56 -7.39,-62.7 -4.99,-17.21 -12.16,-30.37 -21.66,-39.4 -9.51,-9.04 -21.18,-13.56 -35.05,-13.56 -20.56,0 -36.37,10.05 -47.51,30.23 -11.06,20.16 -16.59,48.68 -16.59,85.43 0,24.54 2.41,45.34 7.4,62.55 4.9,17.22 12.23,30.22 21.8,39.1 9.59,8.96 21.19,13.4 34.9,13.4z"/>
    <path id="2" class="fil4" d="M5837.18 6543.89c-28.9,0 -53.59,-6.94 -74.07,-20.72 -20.49,-13.71 -36.14,-33.57 -46.97,-59.5 -10.9,-25.95 -16.36,-57.33 -16.36,-94.18 0,-36.6 5.46,-67.99 16.44,-94.09 10.98,-26.09 26.64,-46.1 47.12,-59.89 20.49,-13.87 45.1,-20.8 73.84,-20.8 28.9,0 53.59,6.93 74.07,20.8 20.41,13.79 36.06,33.73 46.97,59.74 10.9,26.01 16.28,57.49 16.28,94.24 0,36.85 -5.38,68.23 -16.2,94.18 -10.75,25.93 -26.41,45.79 -46.9,59.5 -20.4,13.78 -45.17,20.72 -74.22,20.72zm0 -59.35c13.86,0 25.54,-4.44 35.05,-13.4 9.5,-8.88 16.67,-21.88 21.66,-39.1 4.9,-17.21 7.39,-38.01 7.39,-62.55 0,-24.61 -2.49,-45.56 -7.39,-62.7 -4.99,-17.21 -12.16,-30.37 -21.66,-39.4 -9.51,-9.04 -21.19,-13.56 -35.05,-13.56 -20.56,0 -36.37,10.05 -47.51,30.23 -11.06,20.16 -16.59,48.68 -16.59,85.43 0,24.54 2.41,45.34 7.39,62.55 4.91,17.22 12.24,30.22 21.81,39.1 9.59,8.96 21.19,13.4 34.9,13.4z"/>
    <path id="3" class="fil4" d="M6111.74 6521.07l0 -235.3 59.27 0 0 235.3 -59.27 0zm-87.86 -87.86l0 -59.59 234.99 0 0 59.59 -234.99 0z"/>
    <path class="fil6" d="M5730.49 4999.96l0 -249.71 -111.68 0 0 249.71c0,6.04 2.29,10.63 6.77,13.75 4.48,3.02 9.69,4.59 15.84,4.59l67.19 0c6.04,0 11.25,-1.57 15.52,-4.59 4.28,-3.12 6.36,-7.71 6.36,-13.75zm-158.66 -294.2l67.71 0 -43.86 -56.25c-2.08,-2.39 -5.1,-4.79 -9.16,-7.29 -4.07,-2.4 -8.96,-3.65 -14.69,-3.65 -9.38,0 -17.3,3.23 -23.75,9.79 -6.56,6.46 -9.8,14.38 -9.8,23.76 0,9.38 3.24,17.29 9.8,23.85 6.45,6.46 14.37,9.79 23.75,9.79zm239.92 -33.64c0,-9.38 -3.24,-17.3 -9.8,-23.76 -6.45,-6.56 -14.48,-9.79 -23.75,-9.79 -6.14,0 -11.25,1.25 -15.31,3.65 -4.07,2.5 -6.88,4.9 -8.54,7.29l-43.97 56.25 67.82 0c9.27,0 17.3,-3.33 23.75,-9.79 6.56,-6.56 9.8,-14.47 9.8,-23.85zm131.26 89.17l0 111.68c0,3.23 -1.14,5.94 -3.44,7.91 -2.19,2.09 -4.9,3.03 -8.22,3.03l-32.93 0 0 145.33c0,9.37 -3.33,17.29 -10.1,23.75 -6.67,6.56 -14.59,9.79 -23.44,9.79l-379.73 0c-9.38,0 -17.29,-3.23 -23.75,-9.79 -6.56,-6.46 -9.79,-14.38 -9.79,-23.75l0 -145.33 -33.65 0c-2.81,0 -5.32,-0.94 -7.6,-3.03 -2.2,-1.97 -3.34,-4.68 -3.34,-7.91l0 -111.68c0,-3.33 1.14,-5.94 3.34,-7.92 2.28,-2.08 4.79,-3.12 7.6,-3.12l153.87 0c-21.57,0 -40.01,-7.6 -55.22,-22.81 -15.31,-15.32 -22.92,-33.76 -22.92,-55.32 0,-21.56 7.61,-40.01 22.92,-55.21 15.21,-15.32 33.65,-22.93 55.22,-22.93 11.35,0 22.29,2.4 32.71,7.09 10.31,4.69 18.96,11.25 25.94,19.79l44.48 57.4 44.59 -57.4c6.88,-8.54 15.42,-15.1 25.63,-19.79 10.21,-4.69 21.14,-7.09 33.02,-7.09 21.57,0 39.9,7.61 55.22,22.93 15.2,15.2 22.91,33.65 22.91,55.21 0,21.56 -7.71,40 -22.91,55.32 -15.32,15.21 -33.65,22.81 -55.22,22.81l153.15 0c3.32,0 6.03,1.04 8.22,3.12 2.3,1.98 3.44,4.59 3.44,7.92z"/>
   </g>
   <g>
    <rect class="fil3 str0" x="6.51" y="4819.47" width="3422.21" height="3273.75" rx="328.16" ry="328.16"/>
    <path class="fil4" d="M1364.39 6608.8c-19.84,0 -37.69,-4.53 -53.47,-13.58 -15.73,-9.04 -28.17,-22.15 -37.33,-39.32 -9.15,-17.18 -13.72,-37.9 -13.72,-62.22 0,-24.47 4.57,-45.35 13.77,-62.57 9.21,-17.22 21.7,-30.34 37.54,-39.34 15.78,-8.94 33.57,-13.46 53.21,-13.46 13.06,0 25.2,1.85 36.3,5.5 11.16,3.65 21.03,9 29.62,15.99 8.59,6.94 15.58,15.47 21.02,25.6 5.4,10.08 8.9,21.6 10.39,34.55l-47.92 0c-0.87,-6.12 -2.67,-11.62 -5.34,-16.55 -2.62,-4.94 -6.12,-9.1 -10.39,-12.5 -4.27,-3.44 -9.15,-6.06 -14.6,-7.91 -5.45,-1.85 -11.47,-2.78 -17.99,-2.78 -11.48,0 -21.55,2.88 -30.24,8.64 -8.64,5.76 -15.37,14.14 -20.16,24.98 -4.77,10.91 -7.14,24.22 -7.14,39.85 0,15.99 2.42,29.41 7.19,40.31 4.84,10.9 11.57,19.13 20.21,24.63 8.64,5.5 18.62,8.28 29.98,8.28 6.32,0 12.18,-0.87 17.63,-2.57 5.4,-1.7 10.23,-4.17 14.45,-7.36 4.21,-3.24 7.76,-7.14 10.59,-11.82 2.88,-4.68 4.84,-10.03 5.81,-16.04l47.92 0c-1.23,10.33 -4.27,20.25 -9.1,29.81 -4.89,9.52 -11.47,18.05 -19.85,25.51 -8.32,7.51 -18.2,13.41 -29.67,17.79 -11.41,4.37 -24.31,6.58 -38.71,6.58z"/>
    <polygon id="1" class="fil4" points="1531.59,6381.34 1531.59,6605.77 1485.06,6605.77 1485.06,6381.34 "/>
    <path id="2" class="fil4" d="M1558.99 6605.77l0 -168.39 46.54 0 0 168.39 -46.54 0zm23.25 -189.93c-6.89,0 -12.86,-2.32 -17.74,-6.94 -4.94,-4.63 -7.4,-10.18 -7.4,-16.71 0,-6.53 2.46,-12.08 7.4,-16.66 4.88,-4.57 10.85,-6.84 17.74,-6.84 7.04,0 13,2.27 17.94,6.84 4.93,4.58 7.41,10.13 7.41,16.66 0,6.53 -2.48,12.08 -7.41,16.71 -4.94,4.62 -10.9,6.94 -17.94,6.94z"/>
    <path id="3" class="fil4" d="M1709.59 6609.06c-17.27,0 -32.18,-3.5 -44.73,-10.54 -12.54,-6.99 -22.15,-17.02 -28.84,-30.03 -6.68,-13.01 -10.03,-28.38 -10.03,-46.17 0,-17.27 3.35,-32.45 10.03,-45.51 6.69,-13.05 16.09,-23.23 28.28,-30.58 12.23,-7.3 26.58,-10.96 43.03,-10.96 11.16,0 21.55,1.75 31.16,5.36 9.67,3.54 18.1,8.83 25.35,15.93 7.2,7.1 12.85,15.99 16.86,26.68 4.01,10.7 6.02,23.19 6.02,37.59l0 12.65 -142.22 0 0 -28.8 119.59 0 -21.64 7.56c0,-8.53 -1.34,-15.99 -3.96,-22.31 -2.57,-6.32 -6.48,-11.21 -11.67,-14.7 -5.14,-3.45 -11.57,-5.2 -19.18,-5.2 -7.66,0 -14.09,1.8 -19.38,5.29 -5.24,3.5 -9.31,8.29 -12.13,14.3 -2.79,6.01 -4.23,12.96 -4.23,20.82l0 20.31c0,9.16 1.65,16.97 4.84,23.45 3.24,6.47 7.71,11.41 13.47,14.9 5.81,3.45 12.44,5.2 20,5.2 5.19,0 9.92,-0.77 14.14,-2.26 4.22,-1.55 7.87,-3.76 10.9,-6.63 3.08,-2.94 5.35,-6.43 6.89,-10.55l43.09 2.83c-2.11,10.39 -6.54,19.39 -13.22,27.05 -6.68,7.71 -15.27,13.67 -25.81,17.94 -10.54,4.27 -22.77,6.38 -36.61,6.38z"/>
    <path id="4" class="fil4" d="M1853.15 6508.44l0 97.33 -46.54 0 0 -168.39 45.77 0 0 29.98 1.7 0c3.8,-9.98 9.87,-17.79 18.19,-23.5 8.33,-5.76 18.77,-8.59 31.31,-8.59 11.68,0 21.86,2.53 30.55,7.67 8.69,5.13 15.42,12.38 20.25,21.85 4.79,9.4 7.2,20.71 7.2,33.88l0 107.1 -46.53 0 0 -98.82c0,-10.23 -2.67,-18.31 -7.97,-24.17 -5.35,-5.86 -12.64,-8.84 -22,-8.84 -6.23,0 -11.73,1.38 -16.56,4.17 -4.83,2.77 -8.59,6.68 -11.31,11.82 -2.73,5.14 -4.06,11.31 -4.06,18.51z"/>
    <path id="5" class="fil4" d="M2078.35 6437.38l0 35.22 -101.4 0 0 -35.22 101.4 0zm-78.36 -40.1l46.58 0 0 156.66c0,5.66 1.23,9.77 3.75,12.44 2.52,2.67 6.53,3.96 12.03,3.96 1.85,0 3.86,-0.1 6.07,-0.41 2.21,-0.31 4.11,-0.67 5.7,-1.08l7.36 34.96c-5.09,1.49 -10.03,2.63 -14.81,3.29 -4.78,0.73 -9.46,1.08 -14.09,1.08 -16.76,0 -29.72,-4.22 -38.87,-12.59 -9.15,-8.38 -13.72,-20.21 -13.72,-35.48l0 -162.83z"/>
    <path id="6" class="fil4" d="M2236.18 6485.4l-42.62 2.58c-1.08,-5.36 -4.06,-9.93 -8.9,-13.79 -4.77,-3.85 -11.26,-5.81 -19.43,-5.81 -7.2,0 -13.27,1.5 -18.15,4.53 -4.83,3.03 -7.3,7.04 -7.3,12.03 0,4.01 1.59,7.46 4.78,10.34 3.14,2.88 8.59,5.09 16.35,6.68l30.54 6.07c16.4,3.29 28.59,8.69 36.61,16.09 8.02,7.45 12.08,17.23 12.08,29.36 0,11.16 -3.24,20.87 -9.67,29.15 -6.42,8.28 -15.27,14.76 -26.53,19.44 -11.2,4.67 -24.11,6.99 -38.71,6.99 -22.27,0 -40,-4.63 -53.21,-13.99 -13.22,-9.35 -20.93,-22 -23.14,-37.94l45.65 -2.42c1.5,6.84 4.94,11.98 10.24,15.53 5.34,3.49 12.13,5.24 20.46,5.24 8.17,0 14.76,-1.59 19.85,-4.83 5.03,-3.18 7.61,-7.25 7.61,-12.18 0,-8.33 -7.25,-13.94 -21.7,-16.87l-29.1 -6.01c-16.36,-3.35 -28.54,-9 -36.56,-17.03 -8.07,-8.07 -12.08,-18.35 -12.08,-30.89 0,-10.86 2.98,-20.16 8.9,-28.03 5.9,-7.81 14.24,-13.82 24.93,-18.04 10.69,-4.22 23.19,-6.33 37.58,-6.33 21.29,0 38.05,4.48 50.23,13.48 12.19,9 19.29,21.18 21.29,36.65z"/>
    <path class="fil4" d="M1296.59 7434.6c-23.44,0 -44.39,-4.35 -62.78,-12.93 -18.38,-8.56 -32.94,-20.48 -43.69,-35.67 -10.75,-15.27 -16.36,-32.56 -16.75,-52.03l69.79 0c0.62,13.09 6.08,23.68 16.35,31.78 10.21,8.18 22.59,12.23 37.08,12.23 11.21,0 21.19,-2.49 29.75,-7.56 8.57,-4.98 15.35,-11.99 20.18,-20.87 4.91,-8.88 7.32,-19.23 7.32,-31.16 0,-11.83 -2.49,-22.35 -7.56,-31.46 -4.98,-9.11 -11.91,-16.2 -20.64,-21.35 -8.72,-5.06 -18.85,-7.63 -30.22,-7.63 -10.05,0 -19.7,2.03 -28.97,6.16 -9.27,4.13 -16.51,9.65 -21.66,16.67l-64.17 -11.45 15.96 -179.3 207.88 0 0 58.88 -148.53 0 -8.41 85.06 1.79 0c5.92,-8.34 14.96,-15.27 27.03,-20.73 12.15,-5.53 25.62,-8.25 40.5,-8.25 20.4,0 38.63,4.83 54.68,14.41 16.04,9.58 28.74,22.74 38.01,39.49 9.27,16.74 13.86,35.98 13.86,57.72 0,22.97 -5.29,43.3 -15.97,61.06 -10.59,17.68 -25.47,31.62 -44.54,41.75 -19.09,10.12 -41.21,15.18 -66.29,15.18z"/>
    <path id="1" class="fil4" d="M1592.33 7434.6c-28.89,0 -53.59,-6.93 -74.06,-20.71 -20.49,-13.71 -36.15,-33.57 -46.97,-59.51 -10.91,-25.94 -16.36,-57.32 -16.36,-94.17 0,-36.6 5.45,-67.99 16.43,-94.09 10.99,-26.09 26.64,-46.11 47.12,-59.9 20.49,-13.86 45.1,-20.79 73.84,-20.79 28.9,0 53.59,6.93 74.07,20.79 20.42,13.79 36.07,33.74 46.97,59.74 10.91,26.02 16.28,57.49 16.28,94.25 0,36.85 -5.37,68.23 -16.2,94.17 -10.75,25.94 -26.4,45.8 -46.89,59.51 -20.41,13.78 -45.17,20.71 -74.23,20.71zm0 -59.35c13.87,0 25.55,-4.43 35.06,-13.4 9.5,-8.87 16.66,-21.88 21.65,-39.09 4.9,-17.21 7.4,-38.01 7.4,-62.55 0,-24.61 -2.5,-45.57 -7.4,-62.7 -4.99,-17.21 -12.15,-30.37 -21.65,-39.41 -9.51,-9.03 -21.19,-13.55 -35.06,-13.55 -20.56,0 -36.37,10.04 -47.51,30.22 -11.06,20.17 -16.59,48.68 -16.59,85.44 0,24.54 2.42,45.34 7.4,62.55 4.91,17.21 12.23,30.22 21.81,39.09 9.58,8.97 21.19,13.4 34.89,13.4z"/>
    <path id="2" class="fil4" d="M1898.59 7434.6c-28.89,0 -53.59,-6.93 -74.07,-20.71 -20.48,-13.71 -36.14,-33.57 -46.96,-59.51 -10.91,-25.94 -16.36,-57.32 -16.36,-94.17 0,-36.6 5.45,-67.99 16.43,-94.09 10.99,-26.09 26.64,-46.11 47.12,-59.9 20.49,-13.86 45.1,-20.79 73.84,-20.79 28.9,0 53.59,6.93 74.07,20.79 20.42,13.79 36.07,33.74 46.97,59.74 10.91,26.02 16.28,57.49 16.28,94.25 0,36.85 -5.37,68.23 -16.2,94.17 -10.75,25.94 -26.4,45.8 -46.89,59.51 -20.41,13.78 -45.18,20.71 -74.23,20.71zm0 -59.35c13.87,0 25.55,-4.43 35.06,-13.4 9.5,-8.87 16.66,-21.88 21.65,-39.09 4.9,-17.21 7.4,-38.01 7.4,-62.55 0,-24.61 -2.5,-45.57 -7.4,-62.7 -4.99,-17.21 -12.15,-30.37 -21.65,-39.41 -9.51,-9.03 -21.19,-13.55 -35.06,-13.55 -20.56,0 -36.37,10.04 -47.51,30.22 -11.06,20.17 -16.59,48.68 -16.59,85.44 0,24.54 2.41,45.34 7.4,62.55 4.91,17.21 12.23,30.22 21.81,39.09 9.58,8.97 21.18,13.4 34.89,13.4z"/>
    <path id="3" class="fil4" d="M2173.15 7411.78l0 -235.3 59.28 0 0 235.3 -59.28 0zm-87.86 -87.86l0 -59.58 235 0 0 59.58 -235 0z"/>
    <g>
     <path class="fil7" d="M2076.54 5837.25c0,18.53 -5.28,34.47 -15.93,47.8 -10.58,13.33 -23.37,20 -38.39,20l-156.59 0c0.52,-4.56 0.79,-9.24 0.79,-14.07 0,-23.13 -1.56,-46.35 -4.89,-69.58 -3.24,-23.55 -9.17,-44.79 -17.71,-63.76 -8.54,-18.96 -20.1,-34.48 -34.79,-46.67 -4.34,-3.52 -9.04,-6.51 -14.1,-8.98 10.11,-6.81 22.61,-10.17 37.44,-10.17 10.42,9.89 22.52,17.78 36.08,23.75 13.64,5.98 28.42,9.05 44.29,9.05 15.55,0 30.19,-3.07 43.98,-9.05 13.71,-5.97 25.9,-13.86 36.31,-23.75 16.78,0 30.57,4.29 41.3,13.03 10.8,8.97 19.31,20.38 25.59,34.33 6.28,13.94 10.65,29.57 13.03,46.88 2.45,17.09 3.59,34.18 3.59,51.19zm-65.5 -227.56c0,13.41 -2.53,26.13 -7.67,38.16 -5.05,11.95 -12.1,22.37 -21.07,31.41 -8.96,8.96 -19.46,16.01 -31.41,21.07 -12.02,5.06 -24.74,7.66 -38.15,7.66 -13.8,0 -26.67,-2.6 -38.62,-7.66 -12.03,-5.06 -22.38,-12.11 -31.26,-21.07 -8.8,-9.04 -15.77,-19.46 -20.83,-31.41 -5.37,-12.03 -8.13,-24.75 -8.13,-38.16 0,-13.79 2.76,-26.66 8.13,-38.61 5.06,-12.03 12.03,-22.37 20.83,-31.26 8.88,-8.81 19.23,-15.78 31.26,-20.84 11.95,-5.36 24.82,-8.12 38.62,-8.12 13.41,0 26.13,2.76 38.15,8.12 11.95,5.06 22.45,12.03 31.41,20.84 8.97,8.89 16.02,19.23 21.07,31.26 5.14,11.95 7.67,24.82 7.67,38.61z"/>
     <path class="fil8" d="M1843.96 5894.89c0,25.21 -7.19,46.88 -21.67,65 -14.37,18.13 -31.77,27.19 -52.19,27.19l-297.84 0c-20.31,0 -37.81,-9.06 -52.5,-27.19 -14.68,-18.12 -21.98,-39.79 -21.98,-65 0,-23.13 1.67,-46.36 4.9,-69.59 3.23,-23.54 9.17,-44.79 17.71,-63.75 8.54,-18.96 20.31,-34.48 35.42,-46.67 14.58,-11.88 33.33,-17.71 56.15,-17.71 14.17,13.44 30.63,24.16 49.07,32.29 18.54,8.13 38.64,12.29 60.21,12.29 21.14,0 41.04,-4.16 59.79,-12.29 18.65,-8.13 35.21,-18.85 49.38,-32.29 22.81,0 41.57,5.83 56.15,17.71 14.69,12.19 26.26,27.71 34.8,46.67 8.54,18.96 14.47,40.21 17.71,63.75 3.33,23.23 4.89,46.46 4.89,69.59zm-89.07 -309.4c0,18.23 -3.44,35.52 -10.41,51.88 -6.88,16.25 -16.47,30.42 -28.66,42.71 -12.19,12.19 -26.46,21.78 -42.71,28.65 -16.35,6.87 -33.64,10.42 -51.87,10.42 -18.75,0 -36.25,-3.55 -52.51,-10.42 -16.35,-6.87 -30.41,-16.46 -42.5,-28.65 -11.98,-12.29 -21.46,-26.46 -28.33,-42.71 -7.3,-16.36 -11.05,-33.65 -11.05,-51.88 0,-18.75 3.75,-36.25 11.05,-52.5 6.87,-16.35 16.35,-30.42 28.33,-42.5 12.09,-11.99 26.15,-21.46 42.5,-28.34 16.26,-7.29 33.76,-11.04 52.51,-11.04 18.23,0 35.52,3.75 51.87,11.04 16.25,6.88 30.52,16.35 42.71,28.34 12.19,12.08 21.78,26.15 28.66,42.5 6.97,16.25 10.41,33.75 10.41,52.5z"/>
    </g>
   </g>
  </g>
 </g>
</svg>
