<?xml version="1.0" encoding="UTF-8"?>
<!DOCTYPE svg PUBLIC "-//W3C//DTD SVG 1.0//EN" "http://www.w3.org/TR/2001/REC-SVG-20010904/DTD/svg10.dtd">
<!-- Creator: CorelDRAW 2018 -->
<svg xmlns="http://www.w3.org/2000/svg" xml:space="preserve" width="268px" height="48px" version="1.0" style="shape-rendering:geometricPrecision; text-rendering:geometricPrecision; image-rendering:optimizeQuality; fill-rule:evenodd; clip-rule:evenodd"
viewBox="0 0 13.18 2.35"
 xmlns:xlink="http://www.w3.org/1999/xlink">
 <defs>
  <style type="text/css">
   <![CDATA[
    .fil0 {fill:#C300FF}
    .fil1 {fill:#34353A;fill-rule:nonzero}
   ]]>
  </style>
 </defs>
 <g id="Layer_x0020_1">
  <metadata id="CorelCorpID_0Corel-Layer"/>
  <path class="fil0" d="M13.11 0.37c0.01,0.05 0.02,0.11 0.03,0.18 0.01,0.07 0.02,0.15 0.02,0.22 0.01,0.07 0.01,0.14 0.01,0.2 0,0.06 0.01,0.11 0.01,0.15l0 0.06c0,0.36 -0.03,0.64 -0.07,0.81 -0.02,0.07 -0.06,0.13 -0.11,0.18 -0.06,0.06 -0.12,0.09 -0.19,0.11 -0.08,0.03 -0.23,0.04 -0.44,0.05 -0.22,0.01 -3.22,0.02 -3.4,0.02l-0.27 0c-0.7,0 -1.13,-0.02 -1.3,-0.07 -0.16,-0.04 -0.26,-0.14 -0.3,-0.29 -0.02,-0.08 -0.04,-0.18 -0.05,-0.32 -0.01,-0.14 -0.02,-0.25 -0.02,-0.35l0 -0.14c0,-0.37 0.02,-0.64 0.07,-0.81 0.02,-0.08 0.05,-0.14 0.11,-0.19 0.05,-0.06 0.11,-0.09 0.19,-0.11 0.07,-0.02 0.22,-0.04 0.44,-0.05 0.21,-0.01 0.41,-0.02 0.59,-0.02l0.27 0c0.7,0 3.94,0.02 4.11,0.07 0.07,0.02 0.13,0.05 0.19,0.11 0.05,0.05 0.09,0.11 0.11,0.19zm-4.49 1.46l-0.48 -0.63 0 0.63 -0.34 0 0 -1.42 0.34 0 0 0.62 0.48 -0.62 0.4 0 -0.55 0.69 0.57 0.73 -0.42 0zm0.88 -0.94c0.04,-0.07 0.1,-0.12 0.16,-0.15 0.06,-0.04 0.12,-0.06 0.2,-0.06l0 0.37 -0.1 0c-0.08,0 -0.15,0.02 -0.19,0.06 -0.04,0.03 -0.07,0.1 -0.07,0.19l0 0.53 -0.34 0 0 -1.13 0.34 0 0 0.19zm1.59 -0.19l0 1.13 -0.35 0 0 -0.16c-0.03,0.05 -0.08,0.09 -0.14,0.13 -0.06,0.03 -0.13,0.04 -0.2,0.04 -0.08,0 -0.16,-0.02 -0.23,-0.06 -0.06,-0.04 -0.12,-0.09 -0.15,-0.16 -0.04,-0.08 -0.06,-0.16 -0.06,-0.26l0 -0.66 0.35 0 0 0.61c0,0.08 0.02,0.14 0.06,0.18 0.04,0.04 0.09,0.06 0.16,0.06 0.06,0 0.12,-0.02 0.16,-0.06 0.03,-0.04 0.05,-0.1 0.05,-0.18l0 -0.61 0.35 0zm0.52 0.84l0.49 0 0 0.29 -0.87 0 0 -0.28 0.47 -0.57 -0.47 0 0 -0.28 0.86 0 0 0.27 -0.48 0.57z"/>
  <path class="fil1" d="M0.61 1.91c-0.11,0 -0.21,-0.02 -0.31,-0.05 -0.09,-0.04 -0.16,-0.1 -0.21,-0.17 -0.06,-0.07 -0.09,-0.16 -0.09,-0.26l0.41 0c0,0.05 0.02,0.1 0.06,0.13 0.03,0.03 0.08,0.05 0.13,0.05 0.06,0 0.1,-0.02 0.14,-0.04 0.03,-0.03 0.05,-0.07 0.05,-0.11 0,-0.04 -0.02,-0.07 -0.04,-0.1 -0.03,-0.02 -0.06,-0.04 -0.1,-0.06 -0.04,-0.02 -0.09,-0.04 -0.16,-0.06 -0.1,-0.03 -0.19,-0.06 -0.25,-0.09 -0.06,-0.03 -0.12,-0.08 -0.17,-0.14 -0.04,-0.06 -0.07,-0.14 -0.07,-0.24 0,-0.15 0.06,-0.26 0.16,-0.34 0.11,-0.09 0.25,-0.13 0.42,-0.13 0.17,0 0.31,0.04 0.42,0.13 0.1,0.08 0.16,0.19 0.17,0.34l-0.42 0c0,-0.05 -0.02,-0.09 -0.05,-0.12 -0.04,-0.03 -0.08,-0.04 -0.14,-0.04 -0.04,0 -0.08,0.01 -0.11,0.04 -0.03,0.02 -0.04,0.06 -0.04,0.1 0,0.05 0.02,0.09 0.07,0.12 0.05,0.03 0.12,0.06 0.23,0.09 0.1,0.04 0.18,0.07 0.24,0.1 0.07,0.03 0.12,0.08 0.17,0.14 0.04,0.06 0.07,0.13 0.07,0.23 0,0.09 -0.03,0.17 -0.07,0.24 -0.05,0.08 -0.11,0.13 -0.2,0.18 -0.09,0.04 -0.19,0.06 -0.31,0.06z"/>
  <path id="1" class="fil1" d="M2.96 0.63c0.15,0 0.28,0.05 0.37,0.14 0.09,0.1 0.14,0.23 0.14,0.4l0 0.73 -0.38 0 0 -0.68c0,-0.08 -0.02,-0.14 -0.07,-0.19 -0.04,-0.04 -0.1,-0.06 -0.17,-0.06 -0.08,0 -0.14,0.02 -0.18,0.06 -0.04,0.05 -0.06,0.11 -0.06,0.19l0 0.68 -0.38 0 0 -0.68c0,-0.08 -0.02,-0.14 -0.07,-0.19 -0.04,-0.04 -0.1,-0.06 -0.17,-0.06 -0.08,0 -0.14,0.02 -0.18,0.06 -0.04,0.05 -0.06,0.11 -0.06,0.19l0 0.68 -0.38 0 0 -1.25 0.38 0 0 0.15c0.04,-0.05 0.09,-0.09 0.15,-0.12 0.06,-0.03 0.13,-0.05 0.21,-0.05 0.1,0 0.18,0.02 0.26,0.06 0.07,0.04 0.13,0.1 0.17,0.18 0.04,-0.07 0.1,-0.13 0.18,-0.17 0.07,-0.04 0.15,-0.07 0.24,-0.07z"/>
  <path id="2" class="fil1" d="M3.87 0.52c-0.06,0 -0.12,-0.02 -0.16,-0.06 -0.04,-0.04 -0.07,-0.09 -0.07,-0.15 0,-0.06 0.03,-0.11 0.07,-0.15 0.04,-0.04 0.1,-0.06 0.16,-0.06 0.07,0 0.12,0.02 0.17,0.06 0.04,0.04 0.06,0.09 0.06,0.15 0,0.06 -0.02,0.11 -0.06,0.15 -0.05,0.04 -0.1,0.06 -0.17,0.06zm0.19 0.13l0 1.25 -0.38 0 0 -1.25 0.38 0z"/>
  <path id="3" class="fil1" d="M4.98 1.57l0 0.33 -0.19 0c-0.14,0 -0.25,-0.04 -0.33,-0.11 -0.08,-0.06 -0.12,-0.17 -0.12,-0.33l0 -0.49 -0.15 0 0 -0.32 0.15 0 0 -0.31 0.39 0 0 0.31 0.25 0 0 0.32 -0.25 0 0 0.5c0,0.03 0.01,0.06 0.02,0.08 0.02,0.01 0.05,0.02 0.09,0.02l0.14 0z"/>
  <path id="4" class="fil1" d="M5.9 0.63c0.15,0 0.26,0.05 0.35,0.15 0.09,0.09 0.13,0.22 0.13,0.39l0 0.73 -0.38 0 0 -0.68c0,-0.09 -0.02,-0.15 -0.07,-0.2 -0.04,-0.04 -0.1,-0.07 -0.17,-0.07 -0.07,0 -0.13,0.03 -0.18,0.07 -0.04,0.05 -0.06,0.11 -0.06,0.2l0 0.68 -0.38 0 0 -1.66 0.38 0 0 0.58c0.04,-0.06 0.09,-0.1 0.16,-0.14 0.07,-0.03 0.14,-0.05 0.22,-0.05z"/>
 </g>
</svg>
