<?xml version="1.0" encoding="UTF-8"?>
<!DOCTYPE svg PUBLIC "-//W3C//DTD SVG 1.0//EN" "http://www.w3.org/TR/2001/REC-SVG-20010904/DTD/svg10.dtd">
<!-- Creator: CorelDRAW 2018 -->
<svg xmlns="http://www.w3.org/2000/svg" xml:space="preserve" width="87px" height="66px" version="1.0" style="shape-rendering:geometricPrecision; text-rendering:geometricPrecision; image-rendering:optimizeQuality; fill-rule:evenodd; clip-rule:evenodd"
viewBox="0 0 2.75 2.11"
 xmlns:xlink="http://www.w3.org/1999/xlink">
 <defs>
  <style type="text/css">
   <![CDATA[
    .fil0 {fill:#FEFEFE;fill-rule:nonzero}
   ]]>
  </style>
 </defs>
 <g id="Layer_x0020_1">
  <metadata id="CorelCorpID_0Corel-Layer"/>
  <path class="fil0" d="M2.75 0.41c0,0.02 0,0.05 -0.01,0.07 -0.01,0.02 -0.02,0.04 -0.04,0.05l-1.52 1.53c-0.02,0.02 -0.04,0.03 -0.06,0.04 -0.02,0.01 -0.04,0.01 -0.06,0.01 -0.03,0 -0.05,0 -0.07,-0.01 -0.02,-0.01 -0.04,-0.02 -0.05,-0.04l-0.89 -0.88c-0.02,-0.02 -0.03,-0.04 -0.04,-0.06 -0.01,-0.02 -0.01,-0.04 -0.01,-0.07 0,-0.02 0,-0.04 0.01,-0.06 0.01,-0.02 0.02,-0.04 0.04,-0.05l0.24 -0.25c0.02,-0.01 0.04,-0.03 0.06,-0.03 0.02,-0.01 0.04,-0.02 0.06,-0.02 0.02,0 0.05,0.01 0.07,0.02 0.02,0 0.04,0.02 0.05,0.03l0.53 0.53 1.16 -1.17c0.02,-0.02 0.04,-0.03 0.06,-0.04 0.02,-0.01 0.04,-0.01 0.06,-0.01 0.02,0 0.05,0 0.07,0.01 0.02,0.01 0.04,0.02 0.05,0.04l0.24 0.24c0.02,0.02 0.03,0.03 0.04,0.06 0.01,0.02 0.01,0.04 0.01,0.06z"/>
 </g>
</svg>
