<?xml version="1.0" encoding="UTF-8"?>
<!DOCTYPE svg PUBLIC "-//W3C//DTD SVG 1.0//EN" "http://www.w3.org/TR/2001/REC-SVG-20010904/DTD/svg10.dtd">
<!-- Creator: CorelDRAW 2018 -->
<svg xmlns="http://www.w3.org/2000/svg" xml:space="preserve" width="131px" height="139px" version="1.0" style="shape-rendering:geometricPrecision; text-rendering:geometricPrecision; image-rendering:optimizeQuality; fill-rule:evenodd; clip-rule:evenodd"
viewBox="0 0 25.24 26.64"
 xmlns:xlink="http://www.w3.org/1999/xlink">
 <defs>
  <style type="text/css">
   <![CDATA[
    .fil1 {fill:#253D94;fill-rule:nonzero}
    .fil0 {fill:#F5F7FB;fill-rule:nonzero}
   ]]>
  </style>
 </defs>
 <g id="Layer_x0020_1">
  <metadata id="CorelCorpID_0Corel-Layer"/>
  <g id="_915651560">
   <rect class="fil0" width="25.24" height="26.64" rx="4.77" ry="4.77"/>
   <path class="fil1" d="M10.49 6.83c0.77,0 1.49,0.19 2.13,0.52 0.64,-0.33 1.36,-0.52 2.13,-0.52 1.28,0 2.44,0.52 3.28,1.36 0.84,0.85 1.36,2.01 1.36,3.29 0,1.28 -0.52,2.44 -1.36,3.28 -0.24,0.23 -0.49,0.44 -0.77,0.62 -0.06,1.2 -0.57,2.27 -1.36,3.06 -0.84,0.85 -2,1.37 -3.28,1.37 -1.28,0 -2.44,-0.52 -3.29,-1.36 -0.79,-0.8 -1.29,-1.87 -1.35,-3.07 -0.28,-0.18 -0.54,-0.39 -0.77,-0.62 -0.84,-0.84 -1.36,-2 -1.36,-3.28 0,-1.28 0.52,-2.44 1.36,-3.29 0.84,-0.84 2,-1.36 3.28,-1.36zm2.91 1.02c0.13,0.11 0.25,0.22 0.37,0.34 0.8,0.8 1.3,1.87 1.36,3.07 0.28,0.18 0.54,0.38 0.77,0.62 0.69,0.68 1.16,1.58 1.31,2.58 0.09,-0.08 0.18,-0.16 0.27,-0.25 0.7,-0.7 1.13,-1.67 1.13,-2.73 0,-1.07 -0.43,-2.04 -1.13,-2.74 -0.7,-0.69 -1.67,-1.13 -2.73,-1.13 -0.48,0 -0.93,0.09 -1.35,0.24zm-0.17 0.89c-0.19,-0.18 -0.39,-0.35 -0.61,-0.49 -0.22,0.14 -0.42,0.31 -0.61,0.49 -0.55,0.56 -0.94,1.28 -1.08,2.09 0.53,-0.2 1.1,-0.31 1.69,-0.31 0.59,0 1.16,0.11 1.68,0.31 -0.13,-0.81 -0.52,-1.53 -1.07,-2.09zm-1.39 -0.89c-0.42,-0.15 -0.87,-0.24 -1.35,-0.24 -1.07,0 -2.03,0.44 -2.73,1.13 -0.7,0.7 -1.13,1.67 -1.13,2.74 0,1.06 0.43,2.03 1.13,2.73 0.08,0.09 0.17,0.17 0.27,0.25 0.15,-1 0.62,-1.9 1.3,-2.58 0.24,-0.24 0.5,-0.44 0.78,-0.62 0.05,-1.2 0.56,-2.27 1.35,-3.07 0.12,-0.12 0.25,-0.23 0.38,-0.34zm3.24 4.33c-0.15,1 -0.62,1.9 -1.3,2.58 -0.13,0.12 -0.25,0.23 -0.38,0.34 0.42,0.16 0.87,0.24 1.35,0.24 0.62,0 1.21,-0.15 1.73,-0.41 -0.06,-0.97 -0.48,-1.85 -1.13,-2.5 -0.08,-0.09 -0.17,-0.17 -0.27,-0.25zm-1.85 2.03c0.64,-0.65 1.06,-1.53 1.12,-2.5 -0.52,-0.27 -1.11,-0.41 -1.73,-0.41 -0.62,0 -1.21,0.14 -1.73,0.41 0.06,0.97 0.47,1.85 1.12,2.5 0.19,0.18 0.39,0.35 0.61,0.49 0.22,-0.14 0.42,-0.31 0.61,-0.49zm-0.61 1.4c-0.64,0.33 -1.36,0.51 -2.13,0.51 -0.59,0 -1.16,-0.11 -1.68,-0.31 0.13,0.81 0.52,1.53 1.08,2.09 0.7,0.69 1.66,1.13 2.73,1.13 1.07,0 2.03,-0.44 2.73,-1.13 0.56,-0.56 0.94,-1.28 1.08,-2.09 -0.52,0.2 -1.09,0.31 -1.68,0.31 -0.77,0 -1.49,-0.18 -2.13,-0.51zm-2.13 -0.27c0.48,0 0.93,-0.08 1.35,-0.24 -0.13,-0.11 -0.26,-0.22 -0.38,-0.34 -0.68,-0.68 -1.15,-1.58 -1.3,-2.58 -0.1,0.08 -0.19,0.16 -0.27,0.25 -0.65,0.65 -1.07,1.53 -1.13,2.5 0.52,0.26 1.11,0.41 1.73,0.41z"/>
  </g>
 </g>
</svg>
