<?xml version="1.0" encoding="UTF-8"?>
<!DOCTYPE svg PUBLIC "-//W3C//DTD SVG 1.0//EN" "http://www.w3.org/TR/2001/REC-SVG-20010904/DTD/svg10.dtd">
<!-- Creator: CorelDRAW 2018 -->
<svg xmlns="http://www.w3.org/2000/svg" xml:space="preserve" width="42px" height="42px" version="1.0" style="shape-rendering:geometricPrecision; text-rendering:geometricPrecision; image-rendering:optimizeQuality; fill-rule:evenodd; clip-rule:evenodd"
viewBox="0 0 0.94 0.94"
 xmlns:xlink="http://www.w3.org/1999/xlink">
 <defs>
  <style type="text/css">
   <![CDATA[
    .fil0 {fill:#FEFEFE;fill-rule:nonzero}
   ]]>
  </style>
 </defs>
 <g id="Layer_x0020_1">
  <metadata id="CorelCorpID_0Corel-Layer"/>
  <path class="fil0" d="M0.27 0.27c0.06,-0.05 0.12,-0.08 0.2,-0.08 0.07,0 0.14,0.03 0.19,0.08 0.06,0.06 0.09,0.12 0.09,0.2 0,0.07 -0.03,0.14 -0.08,0.19 -0.06,0.05 -0.12,0.08 -0.2,0.08 -0.05,0 -0.1,-0.01 -0.14,-0.04l-0.01 0 -0.11 0.02 0.03 -0.1 -0.01 -0.01c-0.02,-0.04 -0.04,-0.09 -0.04,-0.14 0,-0.08 0.03,-0.15 0.08,-0.2zm0.36 0.31c0.01,-0.02 0.01,-0.03 0.01,-0.04 -0.01,0 -0.01,0 -0.02,0 -0.03,-0.02 -0.05,-0.03 -0.06,-0.03 -0.01,-0.01 -0.01,0 -0.02,0 0,0.01 -0.01,0.02 -0.02,0.03 -0.01,0.01 -0.01,0.01 -0.02,0.01 -0.03,-0.02 -0.05,-0.03 -0.07,-0.04 -0.01,-0.02 -0.03,-0.04 -0.04,-0.06 0,-0.01 0,-0.01 0,-0.01 0,0 0,-0.01 0.01,-0.02 0,0 0.01,-0.01 0.01,-0.02 0,0 0,-0.01 0,-0.01 0,0 0,-0.01 0,-0.01 -0.01,-0.01 -0.01,-0.02 -0.01,-0.03 -0.01,-0.01 -0.01,-0.02 -0.02,-0.02 0,-0.01 0,-0.02 -0.01,-0.02 -0.01,0 -0.01,0 -0.02,0 -0.01,0 -0.01,0.01 -0.02,0.01 -0.02,0.02 -0.03,0.05 -0.03,0.07 0,0.03 0.01,0.06 0.03,0.09 0,0 0.01,0 0.01,0 0,0.01 0,0.01 0,0.01 0.01,0 0.01,0.01 0.01,0.01 0.01,0.01 0.01,0.02 0.02,0.02 0,0.01 0.01,0.01 0.01,0.02 0.01,0 0.02,0.01 0.02,0.02 0.01,0 0.02,0.01 0.02,0.01 0.01,0.01 0.02,0.01 0.03,0.02 0.01,0 0.02,0.01 0.02,0.01 0.05,0.02 0.08,0.03 0.11,0.02 0,0 0.01,0 0.03,-0.01 0.01,-0.01 0.02,-0.02 0.02,-0.03zm0.21 -0.58c0.02,0 0.05,0.01 0.07,0.03 0.02,0.02 0.03,0.04 0.03,0.07l0 0.74c0,0.02 -0.01,0.05 -0.03,0.07 -0.02,0.02 -0.05,0.03 -0.07,0.03l-0.74 0c-0.03,0 -0.05,-0.01 -0.07,-0.03 -0.02,-0.02 -0.03,-0.05 -0.03,-0.07l0 -0.74c0,-0.03 0.01,-0.05 0.03,-0.07 0.02,-0.02 0.04,-0.03 0.07,-0.03l0.74 0zm-0.37 0.8c0.09,0 0.17,-0.04 0.24,-0.1 0.06,-0.06 0.09,-0.14 0.09,-0.23 0,-0.09 -0.03,-0.17 -0.1,-0.24 -0.06,-0.06 -0.14,-0.1 -0.23,-0.1 -0.09,0 -0.17,0.04 -0.24,0.1 -0.06,0.07 -0.09,0.14 -0.09,0.23 0,0.06 0.01,0.12 0.04,0.17l-0.05 0.17 0.18 -0.04c0.05,0.02 0.1,0.04 0.16,0.04z"/>
 </g>
</svg>
